<?xml version="1.0" encoding="utf-8"?><svg xmlns="http://www.w3.org/2000/svg" xmlns:xlink="http://www.w3.org/1999/xlink"><symbol viewBox="0 0 484.1 101.9" id="forestry-full" xmlns="http://www.w3.org/2000/svg"><path fill="none" stroke="#181919" stroke-miterlimit="10" stroke-width="8" d="M2.8 39.5L28.3 14l25.5 25.5"/><path fill="none" stroke="#181919" stroke-miterlimit="10" stroke-width="8" d="M2.8 62.1l25.5-25.5 25.5 25.5M101.9 36.6L76.4 62.1 50.9 36.6"/><path fill="none" stroke="#181919" stroke-miterlimit="10" stroke-width="8" d="M101.9 14L76.4 39.5 50.9 14M28.3 101.9V0M76.4 101.9V0"/><path d="M127.4 76.4h9V55.3h22.5v-8.2h-22.5V33.7h23.8v-8.2h-32.8v50.9zM211.6 31.4A23.9 23.9 0 0 0 203 26a30.2 30.2 0 0 0-10.9-1.8 29.8 29.8 0 0 0-10.8 1.9 24.5 24.5 0 0 0-8.5 5.4 25 25 0 0 0-5.6 8.5 29.5 29.5 0 0 0-2 11.1 28.2 28.2 0 0 0 2 10.9 24.3 24.3 0 0 0 14.1 13.8 29.8 29.8 0 0 0 10.8 1.9 30.3 30.3 0 0 0 10.9-2 25.6 25.6 0 0 0 8.6-5.5 24.9 24.9 0 0 0 5.6-8.4 28.3 28.3 0 0 0 2-10.9 29.2 29.2 0 0 0-2-11.1 24.8 24.8 0 0 0-5.6-8.4zm-3.1 26.8a17.6 17.6 0 0 1-3.6 6 16.4 16.4 0 0 1-5.5 4 17.5 17.5 0 0 1-7.2 1.4 17.2 17.2 0 0 1-7.2-1.4 16.5 16.5 0 0 1-5.5-4 17.6 17.6 0 0 1-3.6-6 21.9 21.9 0 0 1-1.3-7.5 19.9 19.9 0 0 1 1.3-7.1 17.6 17.6 0 0 1 3.6-5.8 16.4 16.4 0 0 1 5.5-3.9 17.6 17.6 0 0 1 7.2-1.4 17.9 17.9 0 0 1 7.2 1.4 16.3 16.3 0 0 1 5.5 3.9 17.6 17.6 0 0 1 3.6 5.8 19.8 19.8 0 0 1 1.3 7.1 21.8 21.8 0 0 1-1.3 7.5zM259.8 49.4a14.2 14.2 0 0 0 3.1-9.3 14.3 14.3 0 0 0-1.6-7.1 12.2 12.2 0 0 0-4.2-4.5 18.2 18.2 0 0 0-6.1-2.3 36 36 0 0 0-7.1-.7h-17.7v50.9h9.1V54.9h6.6l11.8 21.6h10.9l-13.5-22.6a13.1 13.1 0 0 0 8.7-4.5zm-13.6-2.5l-3.9.2h-7V33.3h7.8l3.6.2a11.2 11.2 0 0 1 3.3.9 5.8 5.8 0 0 1 2.4 2 6.3 6.3 0 0 1 .9 3.6 6.6 6.6 0 0 1-1 3.9 6.1 6.1 0 0 1-2.6 2.1 11.8 11.8 0 0 1-3.5.9zM279.9 54.4h23.4v-8.2h-23.4V33.7h24.7v-8.2h-33.7v50.9h35v-8.2h-26V54.4zM340 49.8a23.7 23.7 0 0 0-5.8-2.6l-5.8-1.9a17.5 17.5 0 0 1-4.5-2.4 4.7 4.7 0 0 1-1.8-4 5.9 5.9 0 0 1 .7-3 6 6 0 0 1 1.9-2 8.3 8.3 0 0 1 2.7-1.1 12.8 12.8 0 0 1 3.1-.4 13.5 13.5 0 0 1 5.1 1 8.4 8.4 0 0 1 3.8 3.1l6.6-7a18.2 18.2 0 0 0-6.8-4 25.1 25.1 0 0 0-7.8-1.2 25.8 25.8 0 0 0-6.9.9 18.6 18.6 0 0 0-6 2.8 14.9 14.9 0 0 0-4.2 4.8 13.7 13.7 0 0 0-1.6 6.8 12.9 12.9 0 0 0 1.8 7.2 14.1 14.1 0 0 0 4.5 4.3 24.5 24.5 0 0 0 5.8 2.6l5.8 2a15.8 15.8 0 0 1 4.5 2.6 5.3 5.3 0 0 1 1.8 4.3 5.9 5.9 0 0 1-.8 3.1 6.7 6.7 0 0 1-2.1 2.2 9.9 9.9 0 0 1-2.9 1.3 12.2 12.2 0 0 1-8.9-1 11.4 11.4 0 0 1-4.3-3.9l-6.9 6.5a17.6 17.6 0 0 0 7.5 5.3 26.7 26.7 0 0 0 9.1 1.6 25 25 0 0 0 7.1-1 17.5 17.5 0 0 0 5.9-3 14.5 14.5 0 0 0 4.1-5.1 16 16 0 0 0 1.5-7.2 13.1 13.1 0 0 0-1.8-7.3 14.4 14.4 0 0 0-4.4-4.3zM350.1 33.7h15.6v42.7h9V33.7h15.6v-8.2h-40.2v8.2zM431.9 49.4a14.2 14.2 0 0 0 3.1-9.3 14.4 14.4 0 0 0-1.6-7.1 12.2 12.2 0 0 0-4.2-4.5 18.1 18.1 0 0 0-6.1-2.3 35.9 35.9 0 0 0-7.1-.7h-17.7v50.9h9.1V54.9h6.6l11.8 21.6h10.9l-13.5-22.6a13.1 13.1 0 0 0 8.7-4.5zm-13.6-2.5l-3.9.2h-7V33.3h7.8l3.6.2a11.3 11.3 0 0 1 3.3.9 5.8 5.8 0 0 1 2.4 2 6.3 6.3 0 0 1 .9 3.6 6.6 6.6 0 0 1-1 3.9 6.1 6.1 0 0 1-2.6 2.1 11.9 11.9 0 0 1-3.5.9zM473.3 25.5l-12.7 20.3-12.5-20.3h-11.3l19.1 29.1v21.8h9V54.6l19.2-29.1h-10.8z"/></symbol><symbol id="forestry-neg-full" viewBox="0 0 484.1 101.9" xmlns="http://www.w3.org/2000/svg"><style>.bst0{fill:none;stroke:#fff;stroke-width:8;stroke-miterlimit:10}.bst1{fill:#fff}</style><path class="bst0" d="M2.8 39.5L28.3 14l25.5 25.5"/><path class="bst0" d="M2.8 62.1l25.5-25.5 25.5 25.5M101.9 36.6L76.4 62.1 50.9 36.6"/><path class="bst0" d="M101.9 14L76.4 39.5 50.9 14M28.3 101.9V0M76.4 101.9V0"/><path class="bst1" d="M127.4 76.4h9V55.3h22.5v-8.2h-22.5V33.7h23.8v-8.2h-32.8zM211.6 31.4c-2.4-2.4-5.4-4.2-8.6-5.4-3.5-1.3-7.2-1.9-10.9-1.8-3.7 0-7.3.6-10.8 1.9-3.2 1.2-6.1 3-8.5 5.4-2.4 2.4-4.3 5.3-5.6 8.5-1.4 3.5-2.1 7.3-2 11.1-.1 3.7.6 7.4 2 10.9 2.5 6.4 7.7 11.4 14.1 13.8 3.5 1.3 7.1 1.9 10.8 1.9 3.7 0 7.4-.7 10.9-2 3.2-1.2 6.1-3.1 8.6-5.5 2.4-2.4 4.3-5.2 5.6-8.4 1.4-3.5 2.1-7.2 2-10.9.1-3.8-.6-7.6-2-11.1-1.3-3.2-3.2-6-5.6-8.4zm-3.1 26.8c-.8 2.2-2 4.3-3.6 6-1.5 1.7-3.4 3.1-5.5 4-2.3 1-4.7 1.4-7.2 1.4-2.5.1-4.9-.4-7.2-1.4-2.1-.9-4-2.3-5.5-4-1.6-1.7-2.8-3.8-3.6-6-.9-2.4-1.3-4.9-1.3-7.5 0-2.4.4-4.8 1.3-7.1.8-2.1 2-4.1 3.6-5.8 1.5-1.7 3.4-3 5.5-3.9 2.3-1 4.7-1.4 7.2-1.4s4.9.4 7.2 1.4c2.1.9 4 2.2 5.5 3.9 1.6 1.7 2.8 3.7 3.6 5.8.9 2.3 1.3 4.7 1.3 7.1 0 2.6-.4 5.1-1.3 7.5zM259.8 49.4c2.1-2.6 3.2-5.9 3.1-9.3.1-2.5-.5-4.9-1.6-7.1-1-1.8-2.4-3.4-4.2-4.5-1.9-1.1-3.9-1.9-6.1-2.3-2.3-.5-4.7-.7-7.1-.7h-17.7v50.9h9.1V54.9h6.6l11.8 21.6h10.9l-13.5-22.6c3.4-.3 6.5-1.9 8.7-4.5zm-13.6-2.5l-3.9.2h-7V33.3h7.8l3.6.2c1.1.1 2.3.4 3.3.9 1 .4 1.8 1.1 2.4 2 .7 1.1 1 2.3.9 3.6.1 1.4-.3 2.7-1 3.9-.7.9-1.6 1.7-2.6 2.1-1.1.5-2.3.8-3.5.9zM279.9 54.4h23.4v-8.2h-23.4V33.7h24.7v-8.2h-33.7v50.9h35v-8.2h-26zM340 49.8c-1.8-1.1-3.8-2-5.8-2.6l-5.8-1.9c-1.6-.6-3.1-1.4-4.5-2.4-1.2-1-1.9-2.5-1.8-4 0-1 .2-2.1.7-3 .5-.8 1.1-1.5 1.9-2 .8-.5 1.7-.9 2.7-1.1 1-.3 2.1-.4 3.1-.4 1.7 0 3.5.3 5.1 1 1.5.6 2.9 1.7 3.8 3.1l6.6-7c-1.9-1.8-4.3-3.2-6.8-4-2.5-.8-5.2-1.2-7.8-1.2-2.3 0-4.7.3-6.9.9-2.2.6-4.2 1.5-6 2.8-1.7 1.3-3.2 2.9-4.2 4.8-1.1 2.1-1.7 4.4-1.6 6.8-.1 2.5.5 5 1.8 7.2 1.2 1.8 2.7 3.2 4.5 4.3 1.8 1.1 3.8 2 5.8 2.6l5.8 2c1.6.6 3.2 1.5 4.5 2.6 1.2 1.1 1.9 2.7 1.8 4.3 0 1.1-.3 2.2-.8 3.1-.5.9-1.2 1.6-2.1 2.2-.9.6-1.9 1-2.9 1.3-3 .8-6.2.4-8.9-1-1.7-.9-3.2-2.3-4.3-3.9l-6.9 6.5c2 2.4 4.6 4.2 7.5 5.3 2.9 1.1 6 1.6 9.1 1.6 2.4 0 4.8-.3 7.1-1 2.1-.6 4.1-1.6 5.9-3 1.7-1.4 3.1-3.1 4.1-5.1 1.1-2.3 1.6-4.7 1.5-7.2.1-2.6-.5-5.1-1.8-7.3-1.1-1.7-2.6-3.2-4.4-4.3zM350.1 33.7h15.6v42.7h9V33.7h15.6v-8.2h-40.2zM431.9 49.4c2.1-2.6 3.2-5.9 3.1-9.3.1-2.5-.5-4.9-1.6-7.1-1-1.8-2.4-3.4-4.2-4.5-1.9-1.1-3.9-1.9-6.1-2.3-2.3-.5-4.7-.7-7.1-.7h-17.7v50.9h9.1V54.9h6.6l11.8 21.6h10.9l-13.5-22.6c3.4-.3 6.5-1.9 8.7-4.5zm-13.6-2.5l-3.9.2h-7V33.3h7.8l3.6.2c1.1.1 2.3.4 3.3.9 1 .4 1.8 1.1 2.4 2 .7 1.1 1 2.3.9 3.6.1 1.4-.3 2.7-1 3.9-.7.9-1.6 1.7-2.6 2.1-1.1.5-2.3.8-3.5.9zM473.3 25.5l-12.7 20.3-12.5-20.3h-11.3l19.1 29.1v21.8h9V54.6l19.2-29.1z"/></symbol><symbol id="forestry-neg-symbol" viewBox="0 0 104.8 101.9" xmlns="http://www.w3.org/2000/svg"><style>.cst0{fill:none;stroke:#fff;stroke-width:8;stroke-miterlimit:10}</style><path class="cst0" d="M2.8 39.5L28.3 14l25.5 25.5"/><path class="cst0" d="M2.8 62.1l25.5-25.5 25.5 25.5M101.9 36.6L76.4 62.1 50.9 36.6"/><path class="cst0" d="M101.9 14L76.4 39.5 50.9 14M28.3 101.9V0M76.4 101.9V0"/></symbol><symbol id="forestry-symbol" viewBox="0 0 104.76 101.9" xmlns="http://www.w3.org/2000/svg"><defs><style>.dcls-1{fill:none;stroke:#181919;stroke-miterlimit:10;stroke-width:8px}</style></defs><path class="dcls-1" d="M2.83 39.5L28.33 14l25.5 25.5"/><path class="dcls-1" d="M2.83 62.1l25.5-25.5 25.5 25.5M101.93 36.6l-25.5 25.5-25.5-25.5"/><path class="dcls-1" d="M101.93 14l-25.5 25.5L50.93 14M28.33 101.9V0M76.43 101.9V0"/></symbol><symbol viewBox="0 0 256 295" preserveAspectRatio="xMinYMin meet" id="svg--bitbucket" xmlns="http://www.w3.org/2000/svg"><g fill="#205081"><path d="M128 0C57.732 0 .012 18.822.012 42.663c0 6.274 15.057 95.364 21.331 130.498 2.51 16.312 43.918 38.898 106.657 38.898 62.74 0 102.893-22.586 106.657-38.898 6.274-35.134 21.331-124.224 21.331-130.498C254.734 18.822 198.268 0 128 0zm0 183.199c-22.586 0-40.153-17.567-40.153-40.153s17.567-40.153 40.153-40.153 40.153 17.567 40.153 40.153c0 21.331-17.567 40.153-40.153 40.153zm0-127.988c-45.172 0-81.561-7.53-81.561-17.567 0-10.039 36.389-17.567 81.561-17.567 45.172 0 81.561 7.528 81.561 17.567 0 10.038-36.389 17.567-81.561 17.567z"/><path d="M220.608 207.04c-2.51 0-3.764 1.255-3.764 1.255s-31.37 25.096-87.835 25.096c-56.466 0-87.835-25.096-87.835-25.096s-2.51-1.255-3.765-1.255c-2.51 0-5.019 1.255-5.019 5.02v1.254c5.02 26.35 8.784 45.172 8.784 47.682 3.764 18.822 41.408 33.88 86.58 33.88s82.816-15.058 86.58-33.88c0-2.51 3.765-21.332 8.784-47.682v-1.255c1.255-2.51 0-5.019-2.51-5.019z"/><circle cx="128" cy="141.791" r="20.077"/></g></symbol><symbol viewBox="0 0 1024 1024" id="svg--github" xmlns="http://www.w3.org/2000/svg"><path d="M512 0C229.25 0 0 229.25 0 512c0 226.25 146.688 418.125 350.156 485.812 25.594 4.688 34.938-11.125 34.938-24.625 0-12.188-.469-52.562-.719-95.312C242 908.812 211.906 817.5 211.906 817.5c-23.312-59.125-56.844-74.875-56.844-74.875-46.531-31.75 3.53-31.125 3.53-31.125 51.406 3.562 78.47 52.75 78.47 52.75 45.688 78.25 119.875 55.625 149 42.5 4.654-33 17.904-55.625 32.5-68.375-113.656-12.937-233.218-56.875-233.218-253.063 0-55.938 19.969-101.562 52.656-137.406-5.219-13-22.844-65.094 5.062-135.562 0 0 42.938-13.75 140.812 52.5 40.812-11.406 84.594-17.031 128.125-17.219 43.5.188 87.312 5.875 128.188 17.281 97.688-66.312 140.688-52.5 140.688-52.5 28 70.531 10.375 122.562 5.125 135.5 32.812 35.844 52.625 81.469 52.625 137.406 0 196.688-119.75 240-233.812 252.688 18.438 15.875 34.75 47 34.75 94.75 0 68.438-.688 123.625-.688 140.5 0 13.625 9.312 29.562 35.25 24.562C877.438 930 1024 738.125 1024 512 1024 229.25 794.75 0 512 0z"/></symbol><symbol viewBox="0 0 210 194" id="svg--gitlab" xmlns="http://www.w3.org/2000/svg"><g fill="none" fill-rule="evenodd"><path d="M105.061 193.655l38.64-118.921h-77.28l38.64 118.921z" fill="#E24329"/><path d="M105.061 193.655L66.421 74.734H12.268l92.793 118.92z" fill="#FC6D26"/><path d="M12.268 74.734L.526 110.874a8 8 0 0 0 2.907 8.943l101.628 73.838-92.793-118.92z" fill="#FCA326"/><path d="M12.268 74.734h54.153L43.148 3.11c-1.197-3.686-6.41-3.685-7.608 0L12.27 74.734z" fill="#E24329"/><path d="M105.061 193.655l38.64-118.921h54.153l-92.793 118.92z" fill="#FC6D26"/><path d="M197.854 74.734l11.742 36.14a8 8 0 0 1-2.906 8.943l-101.629 73.838 92.793-118.92z" fill="#FCA326"/><path d="M197.854 74.734h-54.153L166.974 3.11c1.197-3.686 6.411-3.685 7.608 0l23.272 71.625z" fill="#E24329"/></g></symbol></svg>