<svg height="101.9" viewBox="0 0 484.1 101.9" width="484.1" xmlns="http://www.w3.org/2000/svg"><g fill="none" stroke="#181919" stroke-miterlimit="10" stroke-width="8"><path d="m2.8 39.5 25.5-25.5 25.5 25.5"/><path d="m2.8 62.1 25.5-25.5 25.5 25.5"/><path d="m101.9 36.6-25.5 25.5-25.5-25.5"/><path d="m101.9 14-25.5 25.5-25.5-25.5"/><path d="m28.3 101.9v-101.9"/><path d="m76.4 101.9v-101.9"/></g><path d="m127.4 76.4h9v-21.1h22.5v-8.2h-22.5v-13.4h23.8v-8.2h-32.8z"/><path d="m211.6 31.4a23.9 23.9 0 0 0 -8.6-5.4 30.2 30.2 0 0 0 -10.9-1.8 29.8 29.8 0 0 0 -10.8 1.9 24.5 24.5 0 0 0 -8.5 5.4 25 25 0 0 0 -5.6 8.5 29.5 29.5 0 0 0 -2 11.1 28.2 28.2 0 0 0 2 10.9 24.3 24.3 0 0 0 14.1 13.8 29.8 29.8 0 0 0 10.8 1.9 30.3 30.3 0 0 0 10.9-2 25.6 25.6 0 0 0 8.6-5.5 24.9 24.9 0 0 0 5.6-8.4 28.3 28.3 0 0 0 2-10.9 29.2 29.2 0 0 0 -2-11.1 24.8 24.8 0 0 0 -5.6-8.4zm-3.1 26.8a17.6 17.6 0 0 1 -3.6 6 16.4 16.4 0 0 1 -5.5 4 17.5 17.5 0 0 1 -7.2 1.4 17.2 17.2 0 0 1 -7.2-1.4 16.5 16.5 0 0 1 -5.5-4 17.6 17.6 0 0 1 -3.6-6 21.9 21.9 0 0 1 -1.3-7.5 19.9 19.9 0 0 1 1.3-7.1 17.6 17.6 0 0 1 3.6-5.8 16.4 16.4 0 0 1 5.5-3.9 17.6 17.6 0 0 1 7.2-1.4 17.9 17.9 0 0 1 7.2 1.4 16.3 16.3 0 0 1 5.5 3.9 17.6 17.6 0 0 1 3.6 5.8 19.8 19.8 0 0 1 1.3 7.1 21.8 21.8 0 0 1 -1.3 7.5z"/><path d="m259.8 49.4a14.2 14.2 0 0 0 3.1-9.3 14.3 14.3 0 0 0 -1.6-7.1 12.2 12.2 0 0 0 -4.2-4.5 18.2 18.2 0 0 0 -6.1-2.3 36 36 0 0 0 -7.1-.7h-17.7v50.9h9.1v-21.5h6.6l11.8 21.6h10.9l-13.5-22.6a13.1 13.1 0 0 0 8.7-4.5zm-13.6-2.5-3.9.2h-7v-13.8h7.8l3.6.2a11.2 11.2 0 0 1 3.3.9 5.8 5.8 0 0 1 2.4 2 6.3 6.3 0 0 1 .9 3.6 6.6 6.6 0 0 1 -1 3.9 6.1 6.1 0 0 1 -2.6 2.1 11.8 11.8 0 0 1 -3.5.9z"/><path d="m279.9 54.4h23.4v-8.2h-23.4v-12.5h24.7v-8.2h-33.7v50.9h35v-8.2h-26z"/><path d="m340 49.8a23.7 23.7 0 0 0 -5.8-2.6l-5.8-1.9a17.5 17.5 0 0 1 -4.5-2.4 4.7 4.7 0 0 1 -1.8-4 5.9 5.9 0 0 1 .7-3 6 6 0 0 1 1.9-2 8.3 8.3 0 0 1 2.7-1.1 12.8 12.8 0 0 1 3.1-.4 13.5 13.5 0 0 1 5.1 1 8.4 8.4 0 0 1 3.8 3.1l6.6-7a18.2 18.2 0 0 0 -6.8-4 25.1 25.1 0 0 0 -7.8-1.2 25.8 25.8 0 0 0 -6.9.9 18.6 18.6 0 0 0 -6 2.8 14.9 14.9 0 0 0 -4.2 4.8 13.7 13.7 0 0 0 -1.6 6.8 12.9 12.9 0 0 0 1.8 7.2 14.1 14.1 0 0 0 4.5 4.3 24.5 24.5 0 0 0 5.8 2.6l5.8 2a15.8 15.8 0 0 1 4.5 2.6 5.3 5.3 0 0 1 1.8 4.3 5.9 5.9 0 0 1 -.8 3.1 6.7 6.7 0 0 1 -2.1 2.2 9.9 9.9 0 0 1 -2.9 1.3 12.2 12.2 0 0 1 -8.9-1 11.4 11.4 0 0 1 -4.3-3.9l-6.9 6.5a17.6 17.6 0 0 0 7.5 5.3 26.7 26.7 0 0 0 9.1 1.6 25 25 0 0 0 7.1-1 17.5 17.5 0 0 0 5.9-3 14.5 14.5 0 0 0 4.1-5.1 16 16 0 0 0 1.5-7.2 13.1 13.1 0 0 0 -1.8-7.3 14.4 14.4 0 0 0 -4.4-4.3z"/><path d="m350.1 33.7h15.6v42.7h9v-42.7h15.6v-8.2h-40.2z"/><path d="m431.9 49.4a14.2 14.2 0 0 0 3.1-9.3 14.4 14.4 0 0 0 -1.6-7.1 12.2 12.2 0 0 0 -4.2-4.5 18.1 18.1 0 0 0 -6.1-2.3 35.9 35.9 0 0 0 -7.1-.7h-17.7v50.9h9.1v-21.5h6.6l11.8 21.6h10.9l-13.5-22.6a13.1 13.1 0 0 0 8.7-4.5zm-13.6-2.5-3.9.2h-7v-13.8h7.8l3.6.2a11.3 11.3 0 0 1 3.3.9 5.8 5.8 0 0 1 2.4 2 6.3 6.3 0 0 1 .9 3.6 6.6 6.6 0 0 1 -1 3.9 6.1 6.1 0 0 1 -2.6 2.1 11.9 11.9 0 0 1 -3.5.9z"/><path d="m473.3 25.5-12.7 20.3-12.5-20.3h-11.3l19.1 29.1v21.8h9v-21.8l19.2-29.1z"/></svg>