<svg xmlns="http://www.w3.org/2000/svg" width="1127" height="345" viewBox="0 0 1127 345">
    <defs>
        <filter id="a" width="100%" height="100%" x="0%" y="0%" filterUnits="objectBoundingBox">
            <feGaussianBlur in="SourceGraphic"/>
        </filter>
        <filter id="b" width="100%" height="100%" x="0%" y="0%" filterUnits="objectBoundingBox">
            <feGaussianBlur in="SourceGraphic"/>
        </filter>
    </defs>
    <g fill="none" fill-rule="evenodd">
        <g transform="translate(70)">
            <ellipse cx="116" cy="115.5" fill="#A0F" filter="url(#a)" rx="116" ry="115.5" transform="matrix(-1 0 0 1 232 0)"/>
            <g fill="#FFF" stroke="#FFF" stroke-width=".9">
                <path fill-rule="nonzero" d="M145.986 127.5c-2.598 0-4.886 1.898-4.886 4.413v13.67c0 2.515 2.288 4.417 4.886 4.417h3.61a1.39 1.39 0 0 0 1.404-1.378v-19.744a1.39 1.39 0 0 0-1.403-1.378h-3.611zm0 2.756h2.207v16.988h-2.207c-1.26 0-2.08-.81-2.08-1.66v-13.67c0-.852.821-1.658 2.08-1.658z"/>
                <path d="M129.777 132.9c-1.843-.048-1.556 2.528 0 2.7h11.71c1.884.025 1.884-2.725 0-2.7h-11.71zM130.557 141c-1.333.67-1.739 2.774 0 2.698h11.015c1.77.025 1.77-2.724 0-2.698h-11.015z"/>
                <path fill-rule="nonzero" d="M122.65 127.5c-6.183 0-11.25 4.838-11.25 10.8 0 5.962 5.067 10.8 11.25 10.8s11.25-4.838 11.25-10.8c0-5.962-5.067-10.8-11.25-10.8zm0 2.7c4.713 0 8.48 3.623 8.48 8.1 0 4.477-3.767 8.1-8.48 8.1-4.713 0-8.48-3.623-8.48-8.1 0-4.477 3.767-8.1 8.48-8.1z"/>
                <path fill-rule="nonzero" d="M122.198 132.9c-3.45 0-6.298 2.824-6.298 6.3s2.848 6.3 6.298 6.3 6.302-2.824 6.302-6.3-2.852-6.3-6.302-6.3zm0 2.816c1.975 0 3.524 1.557 3.524 3.484s-1.55 3.484-3.524 3.484-3.52-1.557-3.52-3.484 1.546-3.484 3.52-3.484zM125.146 78.9a1.323 1.323 0 0 0-.613.141L74.341 104.28a1.364 1.364 0 0 0-.602 1.814c1.639 3.366 3.511 5.916 5.586 7.585 2.076 1.668 4.437 2.44 6.736 2 .12-.022.236-.06.345-.115l44.947-22.513a1.35 1.35 0 0 0 .676-.78c.114-.34.09-.713-.067-1.035l-5.635-11.576a1.336 1.336 0 0 0-1.18-.759zm-.627 3.176l4.452 9.145-43.509 21.786c-1.41.238-2.874-.163-4.475-1.45-1.4-1.126-2.823-3.058-4.159-5.5l47.691-23.98z"/>
                <path d="M131.18 90.6a1.363 1.363 0 0 0-1.137.621 1.39 1.39 0 0 0-.115 1.3c1.462 3.603 2.083 6.09 2.135 7.787.05 1.628-.364 2.485-1.117 3.393L94.34 121.96c-.779-.04-1.95-.526-3.38-1.914-1.492-1.448-3.179-3.707-4.914-6.692a1.36 1.36 0 0 0-1.871-.492 1.387 1.387 0 0 0-.488 1.888c1.82 3.132 3.614 5.568 5.38 7.28 1.765 1.714 3.545 2.784 5.437 2.769.206-.002.409-.051.594-.144l37.437-18.668c.161-.081.305-.194.424-.33 1.178-1.364 1.905-3.17 1.835-5.432-.069-2.263-.814-4.997-2.337-8.75a1.367 1.367 0 0 0-1.277-.876z"/>
                <path d="M76.571 108.6a1.382 1.382 0 0 0-.73.203l-2.491 1.474a1.305 1.305 0 0 0-.6 1.482c.163.57.695.963 1.302.965h-.762l7.684 12.34a1.375 1.375 0 0 0 1.834.46l7.176-4.007c.435-.227.71-.666.716-1.147a1.314 1.314 0 0 0-.686-1.164 1.386 1.386 0 0 0-1.377.023l-6.03 3.367-6.696-10.749 1.334-.79c.524-.3.778-.905.621-1.478a1.349 1.349 0 0 0-1.295-.979z"/>
                <path d="M70.573 117.627l5.37 9.217c.376.644 1.185.85 1.804.456l4.208-2.664c1.491-.943.127-3.265-1.364-2.32l-3.086 1.952-4.399-7.543 3.15-1.995c1.146-.7.675-2.52-.654-2.53-.25-.002-.494.07-.706.209l-4.265 2.7c-.647.407-.764 1.172-.499 1.752l.44.766zM103.693 118.5l-1.293 2.338c4.038 2.32 7.31 6.798 10.322 12.062l2.278-1.353c-3.097-5.413-6.553-10.316-11.307-13.047zM117.043 111.3c-.868 5.485.707 11.28 2.875 17.1l2.282-.974c-2.108-5.658-3.47-11.035-2.734-15.684l-2.423-.442zM118.32 73.742a4.419 4.419 0 0 0-3.5.265c-2.25 1.179-3.168 4.064-2.033 6.4l1.96 4.037c.214.438.636.726 1.11.754.472.028.924-.209 1.183-.62a1.42 1.42 0 0 0 .075-1.373l-1.96-4.037c-.495-1.018-.12-2.194.859-2.708.98-.512 2.108-.126 2.602.892l1.96 4.037c.207.45.632.75 1.112.783.48.033.94-.207 1.2-.626.261-.42.282-.952.056-1.393l-1.96-4.036a4.634 4.634 0 0 0-2.665-2.375zM140.657 69a1.31 1.31 0 0 0-.929.41 1.364 1.364 0 0 0-.372.96v26.532h-8.615a1.317 1.317 0 0 0-1.16.67c-.241.42-.241.939 0 1.36.24.42.683.675 1.16.668H142V70.37a1.363 1.363 0 0 0-.387-.975 1.309 1.309 0 0 0-.956-.395z"/>
            </g>
        </g>
        <circle cx="57.5" cy="161.5" r="57.5" fill="#26C6DA" style="mix-blend-mode:multiply" transform="matrix(-1 0 0 1 115 0)"/>
        <circle cx="751" cy="97" r="34" fill="#26C6DA" transform="matrix(-1 0 0 1 1502 0)"/>
        <circle cx="357" cy="206" r="45" fill="#9E9E9E" transform="matrix(-1 0 0 1 714 0)"/>
        <circle cx="987" cy="33" r="20" fill="#FF1744" transform="matrix(-1 0 0 1 1974 0)"/>
        <g transform="translate(483 80)">
            <circle cx="122" cy="122" r="122" fill="#FFC107" style="mix-blend-mode:multiply" transform="matrix(-1 0 0 1 244 0)"/>
            <g fill="#000">
                <path fill-rule="nonzero" d="M62.008 146l50.349-.131-.01-4.162-14.74.037c1.468-1.072 2.664-2.502 3.402-4.2h54.211c.736 1.684 1.913 3.097 3.352 4.163h-29.437v4.162h54.544v-4.162h-12.597c1.445-1.068 2.622-2.483 3.352-4.163h9.272c3.47 0 6.294-2.801 6.294-6.243a15.42 15.42 0 0 0-2.35-8.173 15.66 15.66 0 0 0-6.32-5.74l-5.958-2.955a38.09 38.09 0 0 0-16.231-3.927l-13.309-7.92A32.495 32.495 0 0 0 129.162 98h-19.006c-4.422 0-8.683.895-12.654 2.651l-7.766 3.382c-.638.287-1.293.535-1.951.766l-.013.004a26.709 26.709 0 0 1-8.96 1.522c-1.701 0-3.285.66-4.422 1.819a6.102 6.102 0 0 0-1.871 4.424v5.382l-4.196 4.162v5.024c.004 5.74 4.71 10.408 10.493 10.408H81.8c.751 1.721 1.962 3.16 3.445 4.233l-23.244.06.008 4.163zm88.135-21.342l-3.518 8.724h-25.852V116.4l29.37 2.258v6zm20.788 10.216c-.005.019-.007.035-.01.054l-.016.05c-.715 2.739-3.21 4.65-6.077 4.65a6.274 6.274 0 0 1-6.098-4.727 5.452 5.452 0 0 1-.196-1.517c0-3.442 2.824-6.244 6.294-6.244 3.47 0 6.293 2.802 6.293 6.244a5.53 5.53 0 0 1-.19 1.49zm-11.77-20.216c4.956.093 9.9 1.298 14.337 3.5l5.958 2.953c.984.49 1.884 1.122 2.685 1.865h-4.726v4.162h7.586c.524 1.318.805 2.733.805 4.163 0 1.146-.94 2.08-2.097 2.08h-8.392c0-5.737-4.705-10.405-10.489-10.405-5.784 0-10.49 4.668-10.49 10.406h-3.194l3.195-7.925v-7.611l2.85-1.886 1.973-1.302zm-29.996-12.494c5.125 0 10.14 1.38 14.508 3.992l10.94 6.506-.732.485-2.2 1.454-30.906-2.376v-.038l-.503-.029-2.981-9.994h11.874zm-12.587 13.95v17.268h-14.685c0-.676-.076-1.336-.202-1.977-.042-.21-.113-.408-.168-.616a10.09 10.09 0 0 0-.388-1.236c-.092-.23-.205-.446-.314-.666a10.383 10.383 0 0 0-.563-1.029c-.138-.216-.285-.42-.438-.626-.229-.306-.47-.597-.73-.878a10.93 10.93 0 0 0-.535-.543 10.606 10.606 0 0 0-.902-.74c-.197-.145-.388-.297-.596-.43a10.309 10.309 0 0 0-1.12-.604c-.193-.093-.376-.201-.575-.283-.56-.226-1.143-.41-1.747-.539-.038-.008-.072-.025-.11-.033-.002 0-.004 0-.006-.002v-8.41l5.02.291 18.059 1.053zm-25.128-8.276l7.753-3.378c3.44-1.523 7.127-2.296 10.955-2.296h2.755l2.903 9.736-14.87-.861-8.206-.477-.323-.643-1.032-2.054.065-.027zm-7.198 17.977a10.1 10.1 0 0 0-.535.543c-.26.279-.501.57-.73.878-.153.204-.3.41-.439.627-.21.328-.39.674-.562 1.028-.109.22-.222.437-.315.666-.159.4-.276.813-.388 1.236-.054.206-.128.404-.167.616-.126.64-.202 1.3-.202 1.977h-2.098c-3.47 0-6.293-2.801-6.293-6.243v-3.305l2.966-2.943h7.523v-4.162h-6.294v-4.163c0-.555.214-1.067.642-1.482.38-.387.896-.599 1.456-.599 2.948 0 5.832-.402 8.597-1.195l1.893 3.767v10.125c-.003 0-.005 0-.007.002-.038.009-.071.025-.109.034-.604.129-1.187.312-1.747.539-.2.08-.382.19-.575.283-.384.183-.762.374-1.118.603-.208.133-.399.283-.596.431-.313.233-.617.472-.902.737zm7.151 1.323c3.47 0 6.294 2.802 6.294 6.244 0 .545-.065 1.028-.189 1.48-.006.025-.008.052-.017.079l-.006.023c-.711 2.747-3.208 4.663-6.082 4.663a6.272 6.272 0 0 1-6.098-4.726 5.452 5.452 0 0 1-.195-1.517c0-3.444 2.824-6.246 6.293-6.246z"/>
                <path d="M117 142h8v4h-8zM188 142h8v4h-8zM163 131h4v4h-4zM90 131h4v4h-4z"/>
            </g>
        </g>
        <g transform="translate(936 33)">
            <ellipse cx="95.5" cy="96" fill="#1DE9B6" filter="url(#b)" rx="95.5" ry="96" style="mix-blend-mode:multiply"/>
            <g fill="#000" fill-opacity=".9">
                <path fill-rule="nonzero" d="M96 84.956c5.307 0 9.622-4.327 9.622-9.645 0-5.321-4.316-9.65-9.621-9.65-5.305 0-9.622 4.329-9.622 9.65 0 5.318 4.317 9.645 9.622 9.645zm0-15.926c3.454 0 6.263 2.818 6.263 6.28 0 3.461-2.81 6.277-6.262 6.277-3.452 0-6.261-2.816-6.261-6.276 0-3.463 2.809-6.281 6.26-6.281z"/>
                <path d="M96.082 73.392c.905 0 1.652-.721 1.679-1.635a1.68 1.68 0 0 0-1.63-1.733l-.159-.001c-.928 0-1.65.753-1.65 1.684-.001.947.804 1.676 1.76 1.685zM99.542 77.104l.054.001c.902 0 1.649-.719 1.678-1.63l.002-.197v-.01c0-.93-.752-1.684-1.68-1.684-.928 0-1.68.753-1.68 1.684l-.002.099c-.028.93.7 1.708 1.628 1.737zM94.086 75.26a1.682 1.682 0 0 0-1.637-1.726c-.919.005-1.699.712-1.721 1.642l-.002.152c0 .93.752 1.651 1.681 1.651.927 0 1.68-.788 1.68-1.719zM95.86 80.594l.15.002c.928 0 1.644-.754 1.644-1.686 0-.93-.787-1.685-1.716-1.685-.921.007-1.696.715-1.718 1.645a1.683 1.683 0 0 0 1.64 1.724zM93.51 98.082h.015c.916 0 1.664-.772 1.681-1.69a1.684 1.684 0 0 0-1.648-1.716c-.935.012-1.694.722-1.712 1.653l-.001.095v.011c0 .923.743 1.638 1.665 1.647zM98.422 98.181l.055.001c.903 0 1.65-.719 1.678-1.63l.003-.128v-.03c0-.918-.737-1.617-1.654-1.632h-.025c-.906 0-1.652.771-1.681 1.683a1.682 1.682 0 0 0 1.624 1.736z"/>
                <path fill-rule="nonzero" d="M96 106.07c5.307 0 9.622-4.328 9.622-9.647 0-5.32-4.316-9.648-9.621-9.648-5.305 0-9.622 4.329-9.622 9.648 0 5.32 4.317 9.647 9.622 9.647zm0-15.927c3.454 0 6.263 2.817 6.263 6.28 0 3.46-2.81 6.278-6.262 6.278-3.452 0-6.261-2.817-6.261-6.279 0-3.462 2.809-6.28 6.26-6.28zM96 127.182c5.307 0 9.622-4.328 9.622-9.647 0-5.32-4.316-9.647-9.621-9.647-5.305 0-9.622 4.328-9.622 9.647 0 5.32 4.317 9.647 9.622 9.647zm0-15.926c3.454 0 6.263 2.818 6.263 6.28 0 3.46-2.81 6.277-6.262 6.277-3.452 0-6.261-2.816-6.261-6.278 0-3.461 2.809-6.279 6.26-6.279z"/>
                <path fill-rule="nonzero" d="M125.678 88.529a1.682 1.682 0 0 0-1.68-1.645h-12.076v-2.232c13.88-4.983 13.76-17.36 13.756-17.488a1.682 1.682 0 0 0-1.68-1.645h-12.076v-3.777c0-.931-.75-1.685-1.68-1.685H81.758c-.928 0-1.681.753-1.681 1.685v3.777H68.002c-.913 0-1.659.73-1.68 1.645-.003.127-.121 12.506 13.756 17.488v2.232H68.002c-.913 0-1.659.73-1.68 1.645-.003.127-.121 12.503 13.755 17.49v2.228H68.002c-.913 0-1.659.73-1.68 1.645-.003.127-.121 12.505 13.755 17.49v3.876c0 .931.753 1.685 1.68 1.685h28.485c.928 0 1.68-.753 1.68-1.685v-3.877c13.88-4.984 13.759-17.362 13.756-17.49a1.682 1.682 0 0 0-1.68-1.644h-12.076v-2.23c13.88-4.986 13.76-17.36 13.756-17.488zm-3.518 1.724c-.483 2.89-2.442 8.871-10.238 12.146V90.253h10.238zm.012-21.365c-.464 2.897-2.394 8.863-10.25 12.147V68.888h10.25zm-52.344 0h10.25v12.147c-7.857-3.286-9.787-9.254-10.25-12.147zm0 21.365h10.25v12.148c-7.857-3.287-9.787-9.254-10.25-12.148zm0 21.364h10.25v12.147c-7.857-3.286-9.787-9.254-10.25-12.147zm38.735 17.957H83.438V63.426h25.125v66.148zm13.609-17.957c-.464 2.897-2.394 8.861-10.25 12.147v-12.147h10.25z"/>
            </g>
        </g>
        <g transform="translate(774 152)">
            <ellipse cx="91" cy="91.5" fill="#FF1744" rx="91" ry="91.5"/>
            <g fill="#FFF" stroke="#FFF" stroke-width=".729">
                <path fill-rule="nonzero" d="M93.655 57.341V55h-2.31v2.341C73.406 57.954 59 72.743 59 90.844h2.31c0-.29.014-.574.022-.86 1.42-2.39 3.913-3.765 6.91-3.765 3.017 0 5.527 1.392 6.94 3.815-.003.27-.01.538-.01.81h2.31c0-.282.008-.562.011-.843 1.418-2.402 3.917-3.782 6.92-3.782 3.013 0 5.518 1.387 6.932 3.8v30.887c0 2.161.842 4.194 2.37 5.723A8.03 8.03 0 0 0 99.43 129a8.03 8.03 0 0 0 5.717-2.371 8.045 8.045 0 0 0 2.37-5.723h-2.311a5.747 5.747 0 0 1-1.692 4.088 5.737 5.737 0 0 1-4.084 1.694 5.737 5.737 0 0 1-4.083-1.694 5.747 5.747 0 0 1-1.693-4.088V90.02c1.416-2.413 3.922-3.8 6.931-3.8 3.006 0 5.506 1.381 6.92 3.783.004.281.011.56.011.842h2.31c0-.272-.006-.54-.01-.808 1.413-2.424 3.923-3.817 6.942-3.817 2.997 0 5.491 1.375 6.909 3.766.008.285.022.57.022.859H126c0-18.101-14.407-32.89-32.345-33.503zM68.241 83.906c-2.5 0-4.783.802-6.575 2.227C63.561 73.651 72.87 63.577 84.94 60.558c-5.202 4.77-8.894 14.384-9.628 26.015-1.856-1.694-4.33-2.667-7.07-2.667zm16.173 0c-2.591 0-4.943.869-6.763 2.393 1.038-14.08 6.797-25.415 13.694-26.568v26.717c-1.84-1.616-4.258-2.542-6.931-2.542zm16.172 0c-2.672 0-5.09.926-6.93 2.543V59.73c6.896 1.153 12.655 12.487 13.693 26.568-1.82-1.524-4.172-2.393-6.763-2.393zm16.173 0c-2.742 0-5.214.973-7.07 2.665-.734-11.63-4.425-21.245-9.628-26.014 12.069 3.02 21.377 13.093 23.273 25.575-1.79-1.424-4.076-2.226-6.575-2.226z"/>
                <path fill-rule="nonzero" d="M114.22 103.64h2.008v-2.305h-1.403l2.835-4.79-3.4-3.445-3.722 1.257-3.721-1.258-3.4 3.445 2.835 4.791h-1.403v2.305h2.008c-.488 1.132-1.59 2.344-2.82 3.693-2.68 2.937-6.015 6.593-6.015 12.445 0 1.416.203 2.71.6 3.845l2.146-.773c-.312-.887-.47-1.921-.47-3.072 0-4.95 2.873-8.1 5.41-10.88 1.648-1.806 3.109-3.41 3.555-5.258h2.551c.446 1.848 1.907 3.45 3.556 5.258 2.536 2.78 5.41 5.93 5.41 10.88 0 4.59-2.298 6.917-6.828 6.917h-6.827V129h6.827c5.785 0 9.103-3.361 9.103-9.222 0-5.852-3.335-9.508-6.014-12.445-1.23-1.35-2.333-2.56-2.822-3.693zm-5.313-2.305l-2.626-4.432 1.151-1.165 3.106 1.049 3.106-1.048 1.151 1.165-2.625 4.431h-3.263zM75.934 103.356c-6.901 0-12.516 5.753-12.516 12.822 0 7.07 5.615 12.822 12.516 12.822s12.517-5.752 12.517-12.822c0-7.07-5.616-12.822-12.517-12.822zm0 23.313c-5.646 0-10.24-4.706-10.24-10.49 0-5.786 4.594-10.491 10.24-10.491s10.24 4.705 10.24 10.49-4.594 10.49-10.24 10.49z"/>
                <path d="M77.038 115.393H74.83c-.295 0-.572-.12-.782-.338a1.166 1.166 0 0 1-.323-.813c0-.309.115-.597.323-.813.21-.219.487-.338.782-.338h4.417v-2.303h-2.209v-2.303H74.83v2.303a3.23 3.23 0 0 0-2.343 1.01 3.504 3.504 0 0 0-.97 2.444c0 .923.345 1.791.97 2.443a3.228 3.228 0 0 0 2.343 1.01h2.208c.295 0 .573.12.782.34.208.216.323.504.323.812 0 .309-.115.597-.323.813-.21.219-.487.339-.782.339h-4.417v2.302h2.209v2.303h2.208v-2.303a3.23 3.23 0 0 0 2.343-1.01c.626-.652.97-1.52.97-2.444a3.51 3.51 0 0 0-.97-2.443 3.228 3.228 0 0 0-2.343-1.01z"/>
            </g>
        </g>
        <circle cx="482.5" cy="248.5" r="89.5" fill="#000" fill-opacity=".8"/>
        <circle cx="672" cy="100" r="67" fill="#000" fill-opacity=".8"/>
        <g transform="translate(197 140)">
            <circle cx="71.5" cy="71.5" r="71.5" fill="#000" fill-opacity=".8"/>
            <g fill="#FFF" fill-rule="nonzero" stroke="#FFF" stroke-width=".81">
                <path d="M96.625 51.571h-40.5c-.621 0-1.125.512-1.125 1.143s.504 1.143 1.125 1.143h40.5c.621 0 1.125.512 1.125 1.143v36.571c0 .632-.504 1.143-1.125 1.143h-45c-1.864 0-3.375-1.535-3.375-3.428 0-1.894 1.511-3.429 3.375-3.429.621 0 1.125-.512 1.125-1.143V48.143c0-.631-.504-1.143-1.125-1.143C48.518 47 46 49.558 46 52.714v36.572C46 92.442 48.518 95 51.625 95h45c1.864 0 3.375-1.535 3.375-3.429V55c0-1.894-1.511-3.429-3.375-3.429zM50.5 49.491v34.195c-.816.17-1.584.52-2.25 1.028v-32a3.426 3.426 0 0 1 2.25-3.223z"/>
                <path d="M67.288 65.22c-4.301 0-7.788 3.531-7.788 7.886v6.76c0 1.866 1.494 3.379 3.338 3.379a7.74 7.74 0 0 0 5.507-2.31 7.936 7.936 0 0 0 2.281-5.576v-.664l3.338-3.38 3.338 3.38v.664c0 4.355 3.487 7.886 7.789 7.886 1.843 0 3.338-1.513 3.338-3.38v-6.759c0-4.355-3.487-7.886-7.789-7.886-1.843 0-3.338 1.514-3.338 3.38v2.918l-2.225-2.253V61.84a1.12 1.12 0 0 0-1.113-1.127 1.12 1.12 0 0 0-1.112 1.127v7.424l-2.226 2.253V68.6c0-1.866-1.494-3.38-3.338-3.38zm12.24 3.38a1.12 1.12 0 0 1 1.112-1.127c3.073 0 5.563 2.522 5.563 5.633v6.76a1.12 1.12 0 0 1-1.112 1.126c-3.073 0-5.564-2.522-5.564-5.633V68.6zM68.4 75.36c0 3.11-2.49 5.632-5.563 5.632a1.12 1.12 0 0 1-1.113-1.127v-6.759c0-3.11 2.491-5.633 5.563-5.633a1.12 1.12 0 0 1 1.113 1.127v6.76z"/>
            </g>
        </g>
        <g fill="#FFF">
            <path d="M464.537 281.63c-8.376 0-15.167-6.79-15.167-15.167a1.685 1.685 0 1 0-3.37 0A18.537 18.537 0 0 0 464.537 285a1.685 1.685 0 1 0 0-3.37z"/>
            <path d="M464.657 274.167a7.824 7.824 0 0 1-7.824-7.824 1.565 1.565 0 1 0-3.13 0c0 6.05 4.905 10.953 10.954 10.953a1.565 1.565 0 0 0 0-3.13z"/>
            <path fill-rule="nonzero" d="M460.977 246.525c-1.757 1.756-1.972 4.656-.613 8.186a27.822 27.822 0 0 0 5.9 8.832l-1.807 1.806a3.314 3.314 0 0 0-1.657-.48 3.314 3.314 0 1 0 3.314 3.314 3.314 3.314 0 0 0-.464-1.657l1.79-1.79a27.823 27.823 0 0 0 8.832 5.9 11.6 11.6 0 0 0 4.193.877 5.502 5.502 0 0 0 3.993-1.474c6.494-6.484 6.501-17.004.017-23.498-6.484-6.493-17.005-6.5-23.498-.016zm16.571 20.995a24.16 24.16 0 0 1-7.689-5.154l2.718-2.7a.829.829 0 0 0 0-1.177.795.795 0 0 0-1.16 0l-2.718 2.717c-4.971-5.153-6.48-10.19-5.551-11.98 2.75-.133 7.407 1.922 12.097 6.628 4.69 4.706 6.711 9.346 6.628 12.097a5.817 5.817 0 0 1-4.408-.431h.083zm5.85-1.26c-.58-3.413-3.082-7.705-6.977-11.599a23.78 23.78 0 0 0-11.6-6.976A13.257 13.257 0 0 1 486 258.24a13.107 13.107 0 0 1-2.685 8.02h.083zM523.491 253.78l-14.214-14.444a1.59 1.59 0 0 0-2.267 0l-3.441 3.497-1.962-1.994 4.937-5.016c2.504-2.55 2.504-6.68 0-9.231l-1.882-1.896a6.36 6.36 0 0 0-9.084 0l-4.92 5.016-1.962-1.993 3.44-3.496a1.653 1.653 0 0 0 0-2.304l-14.213-14.444a1.59 1.59 0 0 0-2.267 0l-9.921 10.065a1.647 1.647 0 0 0-.476 1.16c0 .436.171.853.476 1.16l14.214 14.444a1.595 1.595 0 0 0 2.267 0l4.213-4.281 1.961 1.993-7.267 7.369 1.849 1.062a21.075 21.075 0 0 1 8.04 8.17l1.028 1.878 7.268-7.385 1.962 1.994-4.18 4.378a1.653 1.653 0 0 0 0 2.304l14.213 14.444a1.595 1.595 0 0 0 2.267 0l9.921-10.065c.325-.309.509-.74.509-1.193 0-.452-.184-.883-.509-1.192zm-42.4-22.957L469.143 218.7l7.637-7.761 11.947 12.123-7.638 7.761zm8.746 10.85a24.578 24.578 0 0 0-3.505-2.942l11.529-11.73a3.19 3.19 0 0 1 2.275-.96 3.19 3.19 0 0 1 2.275.96l1.85 1.894c.603.613.943 1.445.943 2.312 0 .868-.34 1.7-.944 2.312l-11.528 11.715a24.802 24.802 0 0 0-2.895-3.562zm22.608 21.028l-11.947-12.14 7.637-7.761 11.947 12.14-7.637 7.76z"/>
        </g>
        <path fill="#FFF" fill-rule="nonzero" d="M703.32 74.014a1.481 1.481 0 0 0-.07.023c-5.872 1.097-12.667 2.075-18.187 5.266-5.474 3.165-9.534 8.756-9.602 18.03-1.394 2.498-2.528 5.416-3.393 8.877a34.558 34.558 0 0 0-2.516-4.921v-.046c0-9.541-3.801-14.877-9.186-17.846-5.385-2.969-12.123-3.874-18.487-5.657a1.477 1.477 0 0 0-1.748.811 1.467 1.467 0 0 0 .132 1.442c3.705 5.33 5.783 11.118 8.424 15.8 1.321 2.34 2.796 4.429 4.801 5.956 2.006 1.527 4.536 2.438 7.617 2.438 1.917 0 3.815-.337 6.116-1.104 1.377 2.305 2.516 4.908 3.393 7.888-3.511.54-6.692 2.555-8.517 5.795-3.237.14-6.025 1.046-8.078 2.507-2.228 1.585-3.67 3.827-3.67 6.255 0 .813.662 1.472 1.477 1.472h41.36c.817 0 1.478-.659 1.478-1.472 0-2.428-1.442-4.67-3.67-6.255-2.053-1.461-4.84-2.366-8.078-2.507-1.876-3.332-5.187-5.397-8.817-5.864.798-4.822 2.031-8.536 3.624-11.545 2.036.624 4.008 1.15 5.862 1.15 3.227 0 5.843-.865 7.917-2.369 2.074-1.503 3.593-3.578 4.916-5.91 2.646-4.664 4.616-10.472 8.332-15.937a1.468 1.468 0 0 0 .025-1.6 1.48 1.48 0 0 0-1.456-.677zm-2.793 3.565c-2.833 4.87-4.671 9.635-6.694 13.2-1.214 2.14-2.485 3.824-4.062 4.968-1.577 1.143-3.467 1.816-6.186 1.816-1.052 0-2.578-.368-4.246-.85A25.56 25.56 0 0 1 681 94.55c3.355-3.868 7.728-6.568 12.949-9.728a1.47 1.47 0 0 0 .66-1.718 1.477 1.477 0 0 0-1.537-1.019 1.48 1.48 0 0 0-.647.23c-5.11 3.093-9.713 5.876-13.41 10.027 1.082-5.22 3.826-8.348 7.525-10.487 3.946-2.282 9.016-3.342 13.987-4.277zm-55.879 3.886c5.332 1.314 10.482 2.41 14.287 4.508 3.752 2.068 6.361 5.107 7.248 10.785-3.319-3.754-7.416-6.746-12.164-9.336a1.482 1.482 0 0 0-.854-.184 1.47 1.47 0 1 0-.577 2.783c5.341 2.913 9.648 6.158 12.902 10.486-1.634.49-3.025.736-4.385.736-2.53 0-4.291-.678-5.817-1.84-1.525-1.161-2.817-2.894-4.039-5.06-1.997-3.54-3.84-8.173-6.6-12.878zm27.859 32.289c3.544 0 6.786 1.752 8.263 5.013.235.528.759.87 1.338.874 3.05 0 5.528.85 7.178 2.024a5.705 5.705 0 0 1 1.962 2.391h-37.483a5.705 5.705 0 0 1 1.962-2.391c1.65-1.175 4.128-2.024 7.178-2.024a1.478 1.478 0 0 0 1.339-.874c1.477-3.26 4.718-5.013 8.263-5.013z"/>
        <g transform="translate(844 65)">
            <circle cx="61.5" cy="61.5" r="61.5" fill="#000" fill-opacity=".8"/>
            <g fill="#FFF" stroke="#FFF" stroke-width=".9">
                <path fill-rule="nonzero" d="M55.482 87.761h.847A5.283 5.283 0 0 0 61.5 92a5.283 5.283 0 0 0 5.172-4.239h.847a2.609 2.609 0 0 0 2.605-2.607v-3.08h.492c.573 0 1.038-.464 1.038-1.038v-.356c0-1.295.108-2.56.305-3.79.013-.05.022-.1.028-.151.549-3.29 1.782-6.32 3.667-8.903a17.607 17.607 0 0 0 3.318-11.625c-.625-8.704-7.661-15.67-16.367-16.206-4.894-.3-9.547 1.377-13.103 4.724A17.606 17.606 0 0 0 43.983 57.5c0 3.591 1.078 7.044 3.117 9.986 2.779 4.01 4.247 8.572 4.247 13.192v.357c0 .574.465 1.039 1.038 1.039h.492v3.08a2.609 2.609 0 0 0 2.605 2.606zm14.104-7.764H53.414a24.03 24.03 0 0 0-.196-2.34h16.544c-.089.77-.156 1.548-.176 2.34zM61.5 89.922a3.192 3.192 0 0 1-3.01-2.16h6.02a3.192 3.192 0 0 1-3.01 2.16zm6.548-4.768a.53.53 0 0 1-.529.53H55.482a.53.53 0 0 1-.529-.53v-3.08h13.095v3.08zM46.059 57.501c0-4.308 1.728-8.306 4.865-11.258 3.135-2.95 7.243-4.43 11.554-4.164 7.672.472 13.872 6.611 14.423 14.28a15.525 15.525 0 0 1-2.925 10.251c-1.918 2.63-3.219 5.676-3.883 8.969H52.86c-.703-3.255-2.06-6.4-4.053-9.276a15.38 15.38 0 0 1-2.747-8.802z"/>
                <path d="M61.95 34.409v-2.333c0-.594-.403-1.076-.9-1.076-.495 0-.897.482-.897 1.076v2.333c0 .594.402 1.076.898 1.076s.898-.482.898-1.076zM44.583 40.928l-1.558-1.557a1.018 1.018 0 0 0-1.439 0 1.014 1.014 0 0 0 0 1.436l1.559 1.557a1.014 1.014 0 0 0 1.438 0 1.014 1.014 0 0 0 0-1.436zM36.078 57.912c-.596 0-1.078.402-1.078.897s.482.897 1.078.897h2.336c.595 0 1.078-.402 1.078-.897s-.483-.897-1.078-.897h-2.336zM84.586 59.706h2.336c.595 0 1.078-.402 1.078-.897s-.483-.897-1.078-.897h-2.336c-.595 0-1.078.402-1.078.897s.483.897 1.078.897zM81.414 40.808a1.015 1.015 0 0 0 0-1.437 1.018 1.018 0 0 0-1.439 0l-1.558 1.557a1.015 1.015 0 0 0 .719 1.734c.26 0 .52-.1.72-.298l1.558-1.556z"/>
                <path fill-rule="nonzero" d="M54.016 64.019h4.211l-1.616 7.868c-.096.47.131.946.555 1.16a1.04 1.04 0 0 0 1.255-.238l11.346-12.8c.276-.312.344-.758.175-1.14a1.049 1.049 0 0 0-.958-.627H63.03l2.311-6.067a1.069 1.069 0 0 0-.114-.98 1.046 1.046 0 0 0-.866-.46h-5.768a1.05 1.05 0 0 0-.97.655l-4.576 11.164c-.134.327-.098.7.097.994.195.294.522.47.873.47zm5.278-11.165h3.538l-2.311 6.068c-.125.325-.082.692.114.98.196.288.52.46.865.46h5.137L59.46 68.46l1.085-5.286a1.068 1.068 0 0 0-.213-.884c-.2-.247-.499-.39-.814-.39h-3.931l3.708-9.046z"/>
            </g>
        </g>
        <circle cx="269" cy="324" r="21" fill="#FF1744"/>
        <path fill="#FFF" fill-opacity=".9" fill-rule="nonzero" d="M76.264 141.94c-2.238-2.44-5.934-2.599-8.36-.362l-14.628 13.429H39.493c-.825 0-1.493.693-1.493 1.55v6.662c-.007 5.103 1.861 10.016 5.225 13.738v1.395c0 2.567 2.005 4.648 4.478 4.648h18.61c2.472 0 4.477-2.081 4.477-4.648v-1.395c3.345-3.73 5.196-8.642 5.175-13.738v-6.611c0-.856-.668-1.55-1.493-1.55h-2.14l3.981-4.39c2.268-2.441 2.246-6.315-.05-8.728zm-8.011 33.313a1.578 1.578 0 0 0-.448 1.084v2.015c0 .855-.668 1.55-1.493 1.55h-18.61c-.824 0-1.492-.695-1.492-1.55v-2.015a1.578 1.578 0 0 0-.448-1.084c-2.594-2.719-4.225-6.268-4.627-10.072H72.88c-.402 3.804-2.033 7.353-4.627 10.072zm4.776-17.096v3.925H40.985v-3.925H73.03zm1.195-9.658l-5.971 6.56h-10.45l12.092-11.105a3.004 3.004 0 0 1 4.22.21 3.291 3.291 0 0 1 .059 4.387l.05-.052z"/>
    </g>
</svg>
