<?xml version="1.0" encoding="UTF-8"?>
<svg width="160px" height="53px" viewBox="0 0 160 53" version="1.1" xmlns="http://www.w3.org/2000/svg" xmlns:xlink="http://www.w3.org/1999/xlink">
    <!-- Generator: Sketch 52.2 (67145) - http://www.bohemiancoding.com/sketch -->
    <title>Group 2</title>
    <desc>Created with Sketch.</desc>
    <g id="Symbols" stroke="none" stroke-width="1" fill="none" fill-rule="evenodd">
        <g id="footer" transform="translate(-136.000000, -68.000000)">
            <g id="Group-12">
                <g id="Stacked-Group-9" transform="translate(135.000000, 69.000000)">
                    <g id="Group-16">
                        <g id="Group-2">
                            <g id="Group" transform="translate(111.000000, 0.000000)">
                                <g id="logo-ai-white" transform="translate(0.380000, 0.000000)">
                                    <g id="Group-71">
                                        <polyline id="Stroke-1" stroke="#FFFFFF" stroke-width="0.66" stroke-linecap="round" stroke-linejoin="round" points="5.92933257 39.7855467 0.217194064 43.89736 0.201712149 12.6373867 17.4877862 0.16848 17.4998277 14.7052533"></polyline>
                                        <polyline id="Stroke-3" stroke="#FFFFFF" stroke-width="0.66" stroke-linecap="round" stroke-linejoin="round" points="17.487683 0.168549333 48.6242221 7.918976 48.6242221 39.1827627 42.9196526 37.7642027"></polyline>
                                        <polygon id="Stroke-6" stroke="#231F20" stroke-width="0.5" points="42.9209599 39.9612373 38.4373974 43.224064 38.4122823 19.548464 42.9071982 16.2721173"></polygon>
                                        <polygon id="Stroke-7" stroke="#231F20" stroke-width="0.5" points="42.9209599 39.9612373 38.4373974 43.224064 38.4122823 19.548464 42.9071982 16.2721173"></polygon>
                                        <polygon id="Stroke-8" stroke="#FFFFFF" stroke-width="0.66" stroke-linecap="round" stroke-linejoin="round" points="31.3382513 20.4074347 0.201712149 12.6375947 17.4877862 0.168688 48.6243253 7.91911467"></polygon>
                                        <polygon id="Stroke-10" stroke="#FFFFFF" stroke-width="0.66" stroke-linecap="round" stroke-linejoin="round" points="31.3382513 20.4074347 0.201712149 12.6375947 17.4877862 0.168688 48.6243253 7.91911467"></polygon>
                                        <path d="M20.1874537,33.06212 C19.0087639,33.2319867 17.7839724,33.33668 16.5127352,33.3768933 C14.7794488,33.45628 13.6754163,33.6833467 13.2006375,34.0567067 C12.711409,34.4422 12.4544092,34.95284 12.4299822,35.5900133 C12.4017707,36.3187067 12.6102605,36.9718267 13.0557956,37.5479867 C13.5006426,38.12484 14.1729018,38.5235067 15.0708529,38.7439867 C16.0107771,38.9752133 16.8949665,38.93916 17.7223888,38.63756 C18.5508433,38.3352667 19.1477571,37.8655333 19.5141624,37.2280133 C19.8809118,36.59084 20.0863052,35.6950533 20.1303426,34.5413467 L20.1874537,33.06212 Z M13.0564837,26.3922533 L5.02756264,23.47748 C5.39052753,22.0041467 5.8770037,20.89412 6.48458285,20.1474 C7.092162,19.40068 7.94813987,18.8335333 9.05182838,18.44596 C9.84381434,18.1662 10.9220437,18.0635867 12.2868605,18.13812 C13.6509892,18.213 15.1210831,18.4442267 16.696798,18.8314533 C19.2268869,19.45268 21.2522654,20.10788 22.7746537,20.79532 C24.297042,21.4841467 25.550045,22.44684 26.5350388,23.6840933 C27.2269084,24.5438267 27.757078,25.6507333 28.1238273,27.0037733 C28.4898886,28.3582 28.6515886,29.60412 28.6075511,30.7422267 L28.1957322,41.4178267 C28.1513507,42.5559333 28.1826586,43.4635067 28.2893118,44.1405467 C28.3956209,44.8179333 28.6509005,45.7112933 29.0544624,46.8216667 L21.1342588,44.8761733 C20.8404465,44.17556 20.6512231,43.6500133 20.5672767,43.3002267 C20.4829863,42.9500933 20.4059207,42.4138 20.3364241,41.6923867 C19.1856018,42.5892133 18.0543899,43.1535867 16.9431324,43.3862 C15.4248726,43.68676 13.6767924,43.5942 11.700956,43.10852 C9.07419115,42.4633733 7.1059237,41.3058533 5.79580966,39.63596 C4.4863837,37.9660667 3.86917136,36.1523067 3.94417264,34.1943333 C4.01538945,32.3583867 4.56379328,30.9692933 5.59144838,30.0267067 C6.61807136,29.08412 8.46248349,28.6494 11.1250288,28.72116 C14.3173997,28.8008933 16.3885358,28.8154533 17.3394694,28.76588 C18.290059,28.7163067 19.2991358,28.5928933 20.367732,28.39564 C20.4114254,27.2575333 20.2277067,26.4085467 19.8172639,25.8472933 C19.4061331,25.2874267 18.661969,24.8745467 17.5837397,24.6096933 C16.2010326,24.26996 15.1551433,24.2581733 14.4457275,24.5739867 C13.891819,24.82116 13.4287377,25.4271333 13.0564837,26.3922533 Z" id="Stroke-12" stroke="#FFFFFF" stroke-width="0.66" stroke-linecap="round" stroke-linejoin="round"></path>
                                        <path d="M13.0566213,26.3923227 L5.02770026,23.4772027 C5.39066515,22.004216 5.87679728,20.8941893 6.48437643,20.1474693 C7.09229962,19.4007493 7.94793345,18.8336027 9.05162196,18.4460293 C9.84360791,18.1662693 10.9218373,18.063656 12.2869981,18.1378427 C13.6511269,18.2127227 15.1212207,18.4439493 16.6969356,18.8315227 C19.2270245,19.4527493 21.252059,20.1079493 22.7747913,20.7953893 C24.2968356,21.4838693 25.5501826,22.4469093 26.5348324,23.6841627 C27.227046,24.5435493 27.7572156,25.650456 28.1236209,27.0038427 C28.4896822,28.3582693 28.6513822,29.6041893 28.6076888,30.7419493 L28.1955258,41.4175493 C28.1514883,42.5560027 28.1824522,43.463576 28.2894494,44.140616 C28.3954145,44.817656 28.6510381,45.7113627 29.0546,46.821736 L21.1343964,44.875896 C20.8405841,44.1752827 20.6510166,43.6500827 20.5674143,43.2999493 C20.4827798,42.9501627 20.4060583,42.4138693 20.3365617,41.692456 C19.1853954,42.5892827 18.0541834,43.153656 16.94327,43.3862693 C15.4246662,43.6868293 13.67693,43.5942693 11.7007496,43.1085893 C9.07432877,42.4634427 7.10606132,41.3059227 5.79594728,39.6360293 C4.48652132,37.9657893 3.86930898,36.1520293 3.94431026,34.1944027 C4.01518302,32.358456 4.56393089,30.9693627 5.591586,30.026776 C6.61820898,29.0841893 8.46262111,28.6491227 11.1248224,28.7208827 C14.3171932,28.8009627 16.3883294,28.8155227 17.339263,28.7659493 C18.2898526,28.716376 19.2992734,28.5929627 20.3675256,28.3957093 C20.411219,27.2576027 20.2278443,26.4082693 19.8174015,25.8473627 C19.4062707,25.2871493 18.6617626,24.874616 17.5835332,24.609416 C16.2011703,24.2700293 15.1549369,24.2582427 14.4455211,24.574056 C13.8919566,24.8208827 13.4288754,25.426856 13.0566213,26.3923227 Z" id="Stroke-14" stroke="#FFFFFF" stroke-width="0.66" stroke-linecap="round" stroke-linejoin="round"></path>
                                        <polygon id="Stroke-16" stroke="#FFFFFF" stroke-width="0.66" stroke-linecap="round" stroke-linejoin="round" points="38.4185094 10.584808 29.9681362 8.69894133 34.4998647 5.43958133 42.9072326 7.361848"></polygon>
                                        <polygon id="Stroke-18" stroke="#FFFFFF" stroke-width="0.66" stroke-linecap="round" stroke-linejoin="round" points="38.4185094 10.584808 29.9681362 8.69894133 34.4998647 5.43958133 42.9072326 7.361848"></polygon>
                                        <path d="M17.7862087,34.12292 C17.5952651,33.8760933 17.4507672,33.61436 17.3468664,33.3398 C17.0706002,33.3547067 16.7933019,33.36788 16.5129072,33.3768933 C14.7792768,33.45628 13.6752442,33.6833467 13.2004655,34.0567067 C12.711237,34.4422 12.4545813,34.95284 12.4298102,35.5900133 C12.4015987,36.3187067 12.6100885,36.9718267 13.0556236,37.5479867 C13.5004706,38.12484 14.1727298,38.5235067 15.0706808,38.7439867 C16.0109491,38.9752133 16.8947944,38.93916 17.7225608,38.63756 C18.5506713,38.3352667 19.1479291,37.8655333 19.5143344,37.2280133 C19.7871602,36.7534267 19.9705349,36.13532 20.0648025,35.3747333 C19.9774157,35.3577467 19.8896849,35.34076 19.8012659,35.31892 C18.9033149,35.0980933 18.2310557,34.6997733 17.7862087,34.12292 Z" id="Stroke-20" stroke="#FFFFFF" stroke-width="0.66" stroke-linecap="round" stroke-linejoin="round"></path>
                                        <path d="M20.1874537,33.06212 C19.2692041,33.1945467 18.3217109,33.2860667 17.3470384,33.3398 C17.4505952,33.61436 17.5954371,33.8760933 17.7863807,34.12292 C18.2312277,34.6997733 18.9034869,35.09844 19.801438,35.31892 C19.8898569,35.34076 19.9772437,35.3577467 20.0646305,35.3747333 C20.0969705,35.1136933 20.1193333,34.83636 20.1303426,34.5413467 L20.1874537,33.06212 Z" id="Stroke-22" stroke="#FFFFFF" stroke-width="0.66" stroke-linecap="round" stroke-linejoin="round"></path>
                                        <path d="M5.59148279,30.0267413 C5.65581874,29.967808 5.72290704,29.9109547 5.79343577,29.8558347 C6.56959577,29.2515947 7.7324596,28.8869013 9.28168321,28.7621013 C9.56311002,28.739568 9.85761045,28.7246613 10.1648404,28.717728 C10.4720704,28.7111413 10.79203,28.7121813 11.1247192,28.720848 C12.3219873,28.751008 13.3613398,28.771808 14.2431209,28.7835947 C14.5372773,28.787408 14.8138875,28.7901813 15.0726075,28.7919147 C15.3316715,28.7939947 15.5728453,28.794688 15.796817,28.794688 C16.2447604,28.7943413 16.6225192,28.7898347 16.9304373,28.7815147 C17.0842243,28.7773547 17.2204651,28.7721547 17.3391598,28.7659147 C17.5768932,28.7537813 17.8184111,28.736448 18.0633694,28.7149547 C18.553286,28.6716213 19.0579964,28.6099147 19.5775007,28.5298347 C19.8372528,28.4896213 20.1004453,28.445248 20.3677664,28.3956747 C20.372927,28.2535413 20.3749913,28.115568 20.3732711,27.982448 C20.3667343,27.4492747 20.3034304,26.9885547 20.1833596,26.600288 C20.1534279,26.5028747 20.1197117,26.4103147 20.0825551,26.3222613 C20.0082419,26.1461547 19.919823,25.987728 19.8172983,25.847328 C19.7402328,25.7426347 19.6514698,25.6427947 19.5510094,25.5481547 C19.4822009,25.4836747 19.4065115,25.4223147 19.3270377,25.3623413 C18.3730077,25.352288 17.2173687,25.3301013 15.8553043,25.296128 C15.0086156,25.273248 14.2451851,25.3020213 13.5639809,25.3817547 C13.5471228,25.4070613 13.5302647,25.4316747 13.5134066,25.4580213 C13.4583598,25.5450347 13.4046892,25.6375947 13.3527387,25.7357013 C13.3004443,25.833808 13.24987,25.937808 13.2003279,26.0473547 C13.1511298,26.1565547 13.1029639,26.271648 13.0565181,26.392288 L11.5657817,25.8511413 C11.0672641,26.049088 10.6516607,26.2990347 10.3220679,26.6016747 C10.217479,26.6973547 10.0602515,26.7971947 9.86345917,26.9011947 L5.58769832,29.982368 L5.59148279,30.0267413 Z" id="Stroke-24" stroke="#FFFFFF" stroke-width="0.66" stroke-linecap="round" stroke-linejoin="round"></path>
                                        <path d="M29.0546,46.8218053 C28.6510381,45.711432 28.3954145,44.8177253 28.2894494,44.1406853 C28.1824522,43.4636453 28.1514883,42.556072 28.1955258,41.4176187 L28.6076888,30.7420187 C28.6513822,29.6042587 28.4896822,28.3583387 28.1236209,27.003912 C27.7572156,25.6505253 27.227046,24.5436187 26.5348324,23.684232 C25.5501826,22.446632 24.2968356,21.4839387 22.7747913,20.7954587 C21.252059,20.1080187 19.2270245,19.4528187 16.6969356,18.831592 C15.1212207,18.4440187 13.6511269,18.212792 12.2869981,18.137912 C10.9218373,18.0633787 9.37226962,18.026632 7.41019494,19.280872 L12.4270234,15.663752 C13.9807196,14.703832 15.4284507,14.5911653 17.0172392,14.7128453 C18.3799917,14.817192 19.8518058,15.018952 21.4275207,15.4065253 C23.9576096,16.027752 25.9826441,16.682952 27.5053764,17.370392 C29.0274207,18.058872 30.2807677,19.021912 31.2654175,20.2591653 C31.9576311,21.118552 32.4878007,22.2254587 32.854206,23.5788453 C33.2202673,24.933272 33.3819673,26.179192 33.3382739,27.316952 L32.9261109,37.992552 C32.8820734,39.1310053 32.9130373,40.0385787 33.0200345,40.715272 C33.1259996,41.3926587 33.3812792,42.2863653 33.7851851,43.3967387 L29.0546,46.8218053 Z" id="Stroke-26" stroke="#FFFFFF" stroke-width="0.66" stroke-linecap="round" stroke-linejoin="round"></path>
                                        <polygon id="Stroke-28" stroke="#FFFFFF" stroke-width="0.66" stroke-linecap="round" stroke-linejoin="round" points="48.6241877 7.918976 48.6499909 39.1973227 31.3539396 51.6475093 31.3381137 20.3878827"></polygon>
                                        <path d="M42.9073702,7.36188267 L38.418647,10.5848427 L42.9073702,7.36188267 Z" id="Stroke-30" stroke="#FFFFFF" stroke-width="0.66" stroke-linecap="round" stroke-linejoin="round"></path>
                                        <polygon id="Stroke-32" stroke="#FFFFFF" stroke-width="0.66" stroke-linecap="round" stroke-linejoin="round" points="42.9073702 7.36188267 38.418647 10.5848427 38.4444502 15.2111093 38.418647 10.5848427 38.4375694 15.2669227 42.9173475 12.035296"></polygon>
                                        <polygon id="Stroke-34" stroke="#FFFFFF" stroke-width="0.66" stroke-linecap="round" stroke-linejoin="round" points="42.9209599 13.7445707 42.9175195 12.035504 38.4373974 15.2671307 38.4446223 17.011904"></polygon>
                                        <path d="M38.4322711,15.270736 L38.4185094,10.5848427 L38.4322711,15.270736 Z" id="Stroke-36" stroke="#FFFFFF" stroke-width="0.66" stroke-linecap="round" stroke-linejoin="round"></path>
                                        <polygon id="Stroke-38" stroke="#FFFFFF" stroke-width="0.66" stroke-linecap="round" stroke-linejoin="round" points="36.6089144 16.5859547 38.4323399 15.2707013 38.4185782 10.584808 29.968205 8.69894133 29.968205 15.0384347"></polygon>
                                        <polygon id="Stroke-40" stroke="#FFFFFF" stroke-width="0.66" stroke-linecap="round" stroke-linejoin="round" points="38.4373286 17.012008 38.4373286 17.012008 38.4321679 15.2707013"></polygon>
                                        <path d="M38.4373286,17.012008 L36.6090864,16.5859547 L38.4373286,17.012008 Z" id="Stroke-42" stroke="#FFFFFF" stroke-width="0.66" stroke-linecap="round" stroke-linejoin="round"></path>
                                        <polygon id="Stroke-44" stroke="#FFFFFF" stroke-width="0.66" stroke-linecap="round" stroke-linejoin="round" points="36.6089144 16.5859547 38.4371565 17.012008 38.4323399 15.2707013"></polygon>
                                        <path d="M40.6739492,5.46013867 L40.6794539,5.46117867 L40.6739492,5.46013867 Z" id="Stroke-46" stroke="#FFFFFF" stroke-width="0.66" stroke-linecap="round" stroke-linejoin="round"></path>
                                        <polygon id="Stroke-48" stroke="#FFFFFF" stroke-width="0.66" stroke-linecap="round" stroke-linejoin="round" points="36.6089144 16.5859547 32.6648106 15.6669413 29.968205 17.6020347 33.9332955 18.5161947"></polygon>
                                        <polygon id="Stroke-50" stroke="#FFFFFF" stroke-width="0.66" stroke-linecap="round" stroke-linejoin="round" points="42.9073702 16.272152 40.2795732 15.6713787 38.4410098 17.0119387 36.6089832 16.5858853 33.9333643 18.5161253 38.4124543 19.5484987"></polygon>
                                        <path d="M31.2655207,20.2591307 C31.2957964,20.2969173 31.324352,20.337824 31.3539396,20.3766507 L33.9273779,18.5202507 L38.4123167,19.548464 L38.4374318,43.224064 L33.3328724,42.0346507" id="Stroke-52" stroke="#FFFFFF" stroke-width="0.66" stroke-linecap="round" stroke-linejoin="round"></path>
                                        <path d="M38.4122823,19.5485333 L33.9273435,18.52032 L31.3539052,20.37672 C32.0024254,21.21912 32.5040395,22.28512 32.8542748,23.57888 C33.2203361,24.9333067 33.381692,26.1792267 33.3379986,27.3169867 L32.9261797,37.9925867 C32.8817982,39.13104 32.9131061,40.0382667 33.0201033,40.7153067 C33.0785906,41.0886667 33.1838676,41.5299733 33.332838,42.03472 L38.4373974,43.2241333 L38.4122823,19.5485333 Z" id="Stroke-54" stroke="#FFFFFF" stroke-width="0.66" stroke-linecap="round" stroke-linejoin="round"></path>
                                        <path d="M29.9683083,17.612608 L29.9683083,18.9205813 C30.4420549,19.324448 30.8758925,19.769568 31.2656927,20.2590613 C31.2959685,20.296848 31.32418,20.3377547 31.3541117,20.3765813 L33.92755,18.5201813 L29.9683083,17.612608 Z" id="Stroke-56" stroke="#FFFFFF" stroke-width="0.66" stroke-linecap="round" stroke-linejoin="round"></path>
                                        <path d="M31.3384233,20.387952 L31.3539052,20.376512 C31.3243176,20.3376853 31.295762,20.2967787 31.2654863,20.258992 C30.8756861,19.7694987 30.4421925,19.3243787 29.9684459,18.9208587" id="Stroke-58" stroke="#FFFFFF" stroke-width="0.66" stroke-linecap="round" stroke-linejoin="round"></path>
                                        <path d="M12.4147411,15.672592 L7.41029815,19.2806987 C9.37237283,18.0268053 10.9219405,18.063552 12.2867573,18.1380853 C13.6512301,18.2129653 15.1213239,18.444192 16.6970388,18.8314187 C19.2267837,19.4526453 21.2521622,20.1078453 22.7745505,20.7952853 C24.2969388,21.484112 25.5502858,22.4468053 26.5349356,23.6840587 C27.2271492,24.543792 27.7573188,25.6506987 28.1237241,27.0040853 C28.4897854,28.3581653 28.6514854,29.604432 28.6074479,30.742192 L28.195629,41.417792 C28.1515916,42.5558987 28.1828994,43.4638187 28.2895526,44.140512 C28.3955177,44.8178987 28.6507973,45.7112587 29.0547033,46.8219787 L31.3381137,45.1683787 L31.3381137,20.3751253 L12.4147411,15.672592 Z" id="Stroke-60" stroke="#FFFFFF" stroke-width="0.66" stroke-linecap="round" stroke-linejoin="round"></path>
                                        <path d="M31.3382513,20.375264 L31.3382513,45.1685173 L33.7850819,43.396704 C33.381176,42.2863307 33.1262404,41.392624 33.0199313,40.7152373 C32.9132781,40.038544 32.8819702,39.1309707 32.9263517,37.9925173 L33.3381707,27.3169173 C33.3818641,26.1791573 33.2201641,24.9332373 32.8544468,23.5788107 C32.4876975,22.225424 31.982987,21.2713973 31.3382513,20.375264 Z" id="Stroke-62" stroke="#FFFFFF" stroke-width="0.66" stroke-linecap="round" stroke-linejoin="round"></path>
                                        <path d="M31.3382513,20.4074347 C30.4403002,19.1587413 29.0276615,18.091008 27.5052732,17.4028747 C25.9828849,16.715088 23.9575064,16.059888 21.4274175,15.4386613 C19.8517026,15.051088 18.3798885,14.849328 17.01748,14.745328 C15.4283475,14.623648 13.9806164,14.735968 12.4272643,15.695888 L12.4148787,15.7049013 L31.3382513,20.4074347 Z" id="Stroke-64" stroke="#FFFFFF" stroke-width="0.66" stroke-linecap="round" stroke-linejoin="round"></path>
                                        <path d="M31.3574145,45.1770107 L29.0702196,46.8306107 L21.150016,44.8847707 C20.8562036,44.1841573 20.6666362,43.6589573 20.5830338,43.308824 C20.4983994,42.9586907 20.4213338,42.4223973 20.3521813,41.700984 C19.2010149,42.5981573 18.069803,43.162184 16.9588896,43.3947973 C15.4402857,43.6953573 13.6925496,43.6027973 11.7163691,43.1171173 C9.17251851,42.492424 7.24760043,41.3851707 5.93886255,39.798824 L0.232916809,43.905784 L31.353974,51.647544 L31.369456,51.6364507 L31.3574145,45.1770107 Z" id="Stroke-66" stroke="#FFFFFF" stroke-width="0.66" stroke-linecap="round" stroke-linejoin="round"></path>
                                        <path d="M42.9073702,16.272152 L42.9197558,37.7644453 L42.9073702,16.272152 Z" id="Stroke-68" stroke="#FFFFFF" stroke-width="0.66" stroke-linecap="round" stroke-linejoin="round"></path>
                                    </g>
                                </g>
                            </g>
                            <text id="platform" font-family="Aspira-Bold, Aspira" font-size="24" font-weight="bold" fill="#FFFFFF" fill-opacity="0.9">
                                <tspan x="0" y="35">platform</tspan>
                            </text>
                        </g>
                    </g>
                </g>
            </g>
        </g>
    </g>
</svg>