<?xml version="1.0" encoding="UTF-8"?>
<svg width="193px" height="84px" viewBox="0 0 193 84" version="1.1" xmlns="http://www.w3.org/2000/svg" xmlns:xlink="http://www.w3.org/1999/xlink">
    <!-- Generator: Sketch 52.2 (67145) - http://www.bohemiancoding.com/sketch -->
    <title>Group 2</title>
    <desc>Created with Sketch.</desc>
    <defs>
        <filter x="0.0%" y="0.0%" width="100.0%" height="100.0%" filterUnits="objectBoundingBox" id="filter-1">
            <feGaussianBlur stdDeviation="0" in="SourceGraphic"></feGaussianBlur>
        </filter>
        <filter x="0.0%" y="0.0%" width="100.0%" height="100.0%" filterUnits="objectBoundingBox" id="filter-2">
            <feGaussianBlur stdDeviation="0" in="SourceGraphic"></feGaussianBlur>
        </filter>
        <filter x="0.0%" y="0.0%" width="100.0%" height="100.0%" filterUnits="objectBoundingBox" id="filter-3">
            <feGaussianBlur stdDeviation="0" in="SourceGraphic"></feGaussianBlur>
        </filter>
        <filter x="0.0%" y="0.0%" width="100.0%" height="100.0%" filterUnits="objectBoundingBox" id="filter-4">
            <feGaussianBlur stdDeviation="0" in="SourceGraphic"></feGaussianBlur>
        </filter>
        <filter x="0.0%" y="0.0%" width="100.0%" height="100.0%" filterUnits="objectBoundingBox" id="filter-5">
            <feGaussianBlur stdDeviation="0" in="SourceGraphic"></feGaussianBlur>
        </filter>
        <filter x="0.0%" y="0.0%" width="100.0%" height="100.0%" filterUnits="objectBoundingBox" id="filter-6">
            <feGaussianBlur stdDeviation="0" in="SourceGraphic"></feGaussianBlur>
        </filter>
        <filter x="0.0%" y="0.0%" width="100.0%" height="100.0%" filterUnits="objectBoundingBox" id="filter-7">
            <feGaussianBlur stdDeviation="0" in="SourceGraphic"></feGaussianBlur>
        </filter>
        <filter x="0.0%" y="0.0%" width="100.0%" height="100.0%" filterUnits="objectBoundingBox" id="filter-8">
            <feGaussianBlur stdDeviation="0" in="SourceGraphic"></feGaussianBlur>
        </filter>
        <filter x="0.0%" y="0.0%" width="100.0%" height="100.0%" filterUnits="objectBoundingBox" id="filter-9">
            <feGaussianBlur stdDeviation="0" in="SourceGraphic"></feGaussianBlur>
        </filter>
        <filter x="0.0%" y="0.0%" width="100.0%" height="100.0%" filterUnits="objectBoundingBox" id="filter-10">
            <feGaussianBlur stdDeviation="0" in="SourceGraphic"></feGaussianBlur>
        </filter>
        <filter x="0.0%" y="0.0%" width="100.0%" height="100.0%" filterUnits="objectBoundingBox" id="filter-11">
            <feGaussianBlur stdDeviation="0" in="SourceGraphic"></feGaussianBlur>
        </filter>
        <filter x="0.0%" y="0.0%" width="100.0%" height="100.0%" filterUnits="objectBoundingBox" id="filter-12">
            <feGaussianBlur stdDeviation="0" in="SourceGraphic"></feGaussianBlur>
        </filter>
    </defs>
    <g id="Symbols" stroke="none" stroke-width="1" fill="none" fill-rule="evenodd">
        <g id="nav-white" transform="translate(-137.000000, -8.000000)">
            <g id="Group-2" transform="translate(136.000000, 9.000000)">
                <g id="Group">
                    <text id="platform" font-family="Aspira-Bold, Aspira" font-size="24" font-weight="bold" fill="#000000" fill-opacity="0.9">
                        <tspan x="0" y="37.19">platform</tspan>
                    </text>
                    <g id="logo-ai" transform="translate(115.000000, 0.000000)">
                        <g id="Group-60" transform="translate(0.000000, -0.548051)">
                            <polygon id="Fill-1" fill="#FFE1A4" points="27.8302253 0.835009944 27.8714093 50.2839744 0.2649504 69.9666648 0.24024 20.5472951"></polygon>
                            <polygon id="Fill-2" fill="#9B9B9B" points="77.5261344 13.0877231 77.5678675 62.5361395 49.9614086 82.21883 49.9366982 32.8000083"></polygon>
                            <polygon id="Fill-3" fill="#2D328D" points="77.5261344 62.5129022 27.8714093 50.2837004 27.8302253 0.834735919 77.5261344 13.0875039"></polygon>
                            <polygon id="Fill-4" fill="#2D328D" points="27.871574 50.2835908 77.5262991 62.5133406 77.5262991 13.0879424 27.8298409 0.835174359"></polygon>
                            <polygon id="Fill-5" fill="#2D328D" points="27.871574 50.2835908 77.5262991 62.5133406 77.5262991 13.0879424 27.8298409 0.835174359"></polygon>
                            <polygon id="Stroke-6" stroke="#231F20" stroke-width="0.528" points="61.2273742 31.4731229 47.7497729 28.3958186 54.9827816 23.2540076 68.401627 26.2934964"></polygon>
                            <polygon id="Stroke-7" stroke="#231F20" stroke-width="0.528" points="61.2273742 31.4731229 47.7497729 28.3958186 54.9827816 23.2540076 68.401627 26.2934964"></polygon>
                            <polygon id="Fill-8" fill="#8251A0" points="68.4238115 63.7438787 61.2676796 68.9021313 61.2275939 31.4730133 68.4018467 26.2933868"></polygon>
                            <polygon id="Fill-9" fill="#AA00FF" filter="url(#filter-1)" points="68.4238115 63.7438787 61.2676796 68.9021313 61.2275939 31.4730133 68.4018467 26.2933868"></polygon>
                            <polygon id="Fill-10" fill="#C5E5D6" points="49.9365884 32.8309184 0.240130176 20.5474595 27.8301155 0.835174359 77.5260246 13.0879424"></polygon>
                            <polygon id="Fill-11" fill="#C5E5D6" points="0.240404736 20.5472951 49.9363139 32.831302 77.5262991 13.0877779 27.8298409 0.835009944"></polygon>
                            <polygon id="Fill-12" fill="#BDFFE3" points="0.240404736 20.5472951 49.9363139 32.831302 78.0754191 12.5397273 28.3789609 0.286959311"></polygon>
                            <g id="Group-59" transform="translate(0.000000, 8.602203)">
                                <path d="M32.1390052,44.2347011 C30.2577201,44.5032459 28.3028529,44.6687572 26.2738545,44.7323311 C23.5073879,44.8578347 21.7452618,45.2168079 20.9874762,45.8070584 C20.2066276,46.4164907 19.7964349,47.2237693 19.7568983,48.2310863 C19.7124196,49.3830888 20.0451863,50.4156162 20.7562967,51.3264763 C21.4663089,52.2384326 22.5392893,52.8686908 23.9724925,53.217251 C25.4726884,53.5828008 26.8839268,53.5258035 28.2051095,53.0489995 C29.5268413,52.5710993 30.4801137,51.8284907 31.0649265,50.8206256 C31.6491901,49.8133085 31.9775639,48.3971457 32.0484004,46.5732332 L32.1390052,44.2347011 Z M20.7573949,33.6902069 L7.94313062,29.0821972 C8.5219031,26.752982 9.29835878,24.9981239 10.2681047,23.8176228 C11.2378506,22.6371218 12.6040612,21.7405109 14.3656381,21.1277903 C15.6297124,20.6855135 17.3506545,20.5232905 19.5290135,20.6411214 C21.7068234,20.7595003 24.0526641,21.1250501 26.5676337,21.7372226 C30.6058621,22.7193294 33.8385316,23.7551451 36.2689367,24.8419295 C38.6982436,25.9309061 40.6981386,27.4528427 42.2697201,29.4088354 C43.3750986,30.768001 44.2212925,32.5179266 44.8055562,34.6569683 C45.390369,36.7982021 45.6484554,38.7678961 45.5781681,40.5671463 L44.9208714,57.4443655 C44.8500349,59.2436158 44.9000049,60.6784123 45.0702321,61.7487552 C45.2399101,62.8196461 45.6473572,64.2319726 46.2914749,65.9873788 L33.6507325,62.9117186 C33.1806858,61.8041083 32.8792189,60.9732636 32.7452337,60.4202805 C32.6106993,59.8667493 32.4876964,59.018915 32.3773233,57.8784216 C30.5399677,59.2962286 28.7344612,60.188455 26.9608036,60.556197 C24.537537,61.0313569 21.7474583,60.8850274 18.5938621,60.1172085 C14.4013309,59.0972862 11.2598154,57.2673452 9.16876646,54.6273853 C7.07881574,51.9874254 6.09369446,49.1200245 6.21340262,46.0246345 C6.32652134,43.1221583 7.20291686,40.9261195 8.84258918,39.4359698 C10.4811633,37.9458201 13.4255447,37.2585646 17.6740861,37.3720111 C22.7699197,37.4980627 26.0756221,37.5210809 27.5933898,37.4427096 C29.1100593,37.3643384 30.7217265,37.1692324 32.4261949,36.8573916 C32.4964823,35.0581413 32.2032522,33.7159653 31.5487012,32.8286714 C30.8919537,31.9435696 29.7042071,31.2908413 27.983265,30.8721306 C25.7763517,30.335041 24.1070269,30.3164073 22.9747415,30.8156814 C22.0906583,31.2064415 21.3509937,32.164434 20.7573949,33.6902069 Z" id="Fill-13" fill="#ED2649"></path>
                                <path d="M20.7576146,33.6903714 L7.94280115,29.0818136 C8.52212275,26.7531465 9.29857843,24.9982883 10.2677752,23.8177873 C11.2380703,22.6372862 12.6037317,21.7406754 14.3653087,21.1279548 C15.6293829,20.6856779 17.3508741,20.5234549 19.5292332,20.6407377 C21.7070431,20.7591167 24.0528837,21.1246665 26.5678533,21.7373871 C30.6060818,22.7194938 33.8382021,23.7553095 36.2686072,24.8420939 C38.6984632,25.9305225 40.6978092,27.4530071 42.2699397,29.4089998 C43.3747692,30.7676173 44.2209631,32.517543 44.8057759,34.6571327 C45.3900396,36.7983665 45.648126,38.7680605 45.5778386,40.5667627 L44.9210911,57.4439819 C44.8502546,59.2437802 44.9002245,60.6785767 45.0699026,61.7489196 C45.2401298,62.8192625 45.6470277,64.232137 46.2916946,65.9875432 L33.6504031,62.911335 C33.1809055,61.8037247 32.8788895,60.973428 32.7454533,60.4198968 C32.6109189,59.8669137 32.4873669,59.0190794 32.3769938,57.878586 C30.5396383,59.296393 28.7341317,60.1886195 26.9610232,60.5563614 C24.5377567,61.0315213 21.747678,60.8851918 18.5940818,60.1173729 C14.4015506,59.0974507 11.259486,57.2675096 9.16898611,54.6275497 C7.07903539,51.9870417 6.09391411,49.1196408 6.21362227,46.0247989 C6.32674099,43.1223228 7.20258739,40.9262839 8.84280883,39.4361342 C10.4808338,37.9459845 13.4252152,37.258181 17.6743058,37.3716275 C22.7695903,37.4982272 26.0758418,37.5212453 27.5930604,37.442874 C29.1102789,37.3645028 30.7219461,37.1693968 32.4264146,36.857556 C32.496702,35.0583057 32.2034719,33.7155817 31.5483717,32.8288358 C30.8916242,31.9431859 29.7044268,31.2910057 27.9829356,30.871747 C25.7765714,30.3352054 24.1072466,30.3165717 22.974412,30.8158458 C22.090878,31.2060578 21.3512133,32.1640503 20.7576146,33.6903714" id="Fill-15" fill="#ED2649"></path>
                                <polygon id="Fill-17" fill="#62C2A5" points="61.2375329 8.70002977 47.7500475 5.71863433 54.982507 0.565862278 68.4019016 3.60480304"></polygon>
                                <polygon id="Fill-19" fill="#1DE9B6" filter="url(#filter-2)" points="61.2375329 8.70002977 47.7500475 5.71863433 54.982507 0.565862278 68.4019016 3.60480304"></polygon>
                                <path d="M28.3064221,45.9117909 C28.0016605,45.5215788 27.7710301,45.1078006 27.6051959,44.6737445 C27.1648017,44.6973107 26.7216618,44.7181366 26.274129,44.7323859 C23.5076625,44.8578895 21.7455364,45.2168627 20.9877508,45.8071132 C20.206353,46.4165455 19.7967095,47.2238241 19.7571729,48.2311411 C19.7126941,49.3831436 20.0449117,50.415671 20.7560221,51.3265311 C21.4665834,52.2384874 22.5390148,52.8687456 23.972218,53.2173058 C25.4729629,53.5828556 26.8836522,53.5258583 28.2048349,53.0490543 C29.5271159,52.5711541 30.4798391,51.8285455 31.0646519,50.8206804 C31.5001041,50.0703991 31.792785,49.0932248 31.9432439,47.8908017 C31.8032183,47.8639472 31.6637418,47.8370927 31.522618,47.8025655 C30.0894148,47.4534573 29.0169834,46.8237471 28.3064221,45.9117909" id="Fill-21" fill="#FFE0A3"></path>
                                <path d="M32.1390052,44.2347011 C30.6728548,44.4440565 29.1605783,44.5887418 27.6049213,44.6736897 C27.7713047,45.1077458 28.0019351,45.521524 28.3066967,45.9117361 C29.0167089,46.8236923 30.0896893,47.4539505 31.5228925,47.8025107 C31.6640164,47.8370379 31.8034929,47.8638924 31.9435185,47.8907469 C31.9945866,47.4780648 32.0302794,47.0396243 32.0484004,46.5732332 L32.1390052,44.2347011 Z" id="Fill-23" fill="#FCBF12"></path>
                                <path d="M8.84269901,39.4360794 C8.94538445,39.3429108 9.05246285,39.2530305 9.16503245,39.1658904 C10.4038472,38.2106382 12.2598728,37.6340889 14.7325601,37.4367907 C15.1817403,37.4011674 15.651787,37.3776012 16.1421512,37.3666402 C16.6330644,37.3562272 17.1431969,37.3578714 17.674196,37.3715727 C19.5851336,37.4192531 21.2440251,37.4521361 22.6514196,37.4707698 C23.1209172,37.4767984 23.5624097,37.4811828 23.9758971,37.483923 C24.3888353,37.4872113 24.7743176,37.4883074 25.1312456,37.4883074 C25.8461998,37.4877594 26.4491336,37.4806347 26.940596,37.4674815 C27.1860526,37.4609049 27.4035041,37.4526842 27.5929505,37.4428192 C27.9729416,37.4236375 28.3578747,37.3962349 28.7488481,37.3622558 C29.530795,37.2937495 30.336354,37.1961965 31.1655252,37.0695968 C31.5801108,37.0060229 32.0007368,36.9358724 32.4263048,36.8575012 C32.4356398,36.6328004 32.4383854,36.4146763 32.4361889,36.2042248 C32.4252065,35.3613229 32.3241684,34.6329636 32.1325256,34.0191469 C32.0847521,33.8651447 32.0314875,33.7188152 31.9716334,33.5796103 C31.8530235,33.3012006 31.7118996,33.0507415 31.548811,32.828781 C31.425259,32.6632697 31.283586,32.5054311 31.123243,32.3558133 C31.0139681,32.2538758 30.8926126,32.1568709 30.7657659,32.0620581 C29.2430561,32.0461647 27.398562,32.0110894 25.224596,31.9573805 C23.8732116,31.9212091 22.6547144,31.9666973 21.5674568,32.092749 C21.5405499,32.1327567 21.513643,32.1716683 21.4867361,32.2133201 C21.3988769,32.3508808 21.3137633,32.4972103 21.2302971,32.6523087 C21.1468308,32.807407 21.0661102,32.9718222 20.9870369,33.1450062 C20.9085128,33.3176421 20.831636,33.4995949 20.7575048,33.6903166 L18.3781678,32.8348095 C17.5824929,33.1477464 16.9197051,33.5428909 16.393099,34.0213391 C16.2261665,34.1726011 15.9752187,34.3304397 15.661122,34.4948549 L8.83665869,39.3659289 L8.84269901,39.4360794 Z" id="Fill-25" fill="#FCBF12"></path>
                                <polygon id="Fill-27" fill="#0E8C65" points="68.4018467 3.60485784 61.237478 8.70008458 61.278662 16.0138203 61.237478 8.70008458 61.2676796 16.1020564 68.4177711 10.9931284"></polygon>
                                <polygon id="Fill-29" fill="#AA00FF" filter="url(#filter-3)" points="68.4238115 13.6953469 68.4177711 10.9934573 61.2676796 16.1023853 61.278662 18.8607241"></polygon>
                                <path d="M61.2590035,16.1080302 L61.2375878,8.70002977 L61.2590035,16.1080302 Z" id="Fill-31" fill="#0CB586"></path>
                                <polygon id="Fill-33" fill="#12B586" points="58.3492716 18.1873343 61.2590584 16.1080302 61.2376428 8.70002977 47.7496082 5.71863433 47.7496082 15.7408363"></polygon>
                                <polygon id="Fill-35" fill="#0CB586" points="61.2675698 18.8608885 61.2675698 18.8608885 61.2587839 16.1080302"></polygon>
                                <path d="M61.2675698,18.8608885 L58.3495461,18.1873343 L61.2675698,18.8608885 Z" id="Fill-37" fill="#0CB586"></path>
                                <polygon id="Fill-39" fill="#7D3699" points="58.3492716 18.1873343 61.2672952 18.8608885 61.2590584 16.1080302"></polygon>
                                <path d="M64.8373989,0.598306876 L64.8456357,0.599951028 L64.8373989,0.598306876 Z" id="Stroke-41" stroke="#231F20" stroke-width="0.528"></path>
                                <polygon id="Fill-43" fill="#1DE9B6" filter="url(#filter-4)" points="58.3492716 18.1873343 52.0536108 16.7344521 47.7496082 19.7936707 54.0782162 21.2388802"></polygon>
                                <polygon id="Fill-45" fill="#C787F4" points="68.4018467 17.691184 64.207119 16.7414123 61.2731708 18.8607241 58.3491068 18.1871699 54.0780515 21.2387158 61.2275939 22.8708106"></polygon>
                                <path d="M61.2273742,22.8709202 L54.069595,21.245402 L49.9616283,24.1802131 C50.9961704,25.5119762 51.7973364,27.1972319 52.3563406,29.2425568 C52.9406043,31.3837907 53.1986907,33.3534846 53.1284033,35.1521868 L52.4716558,52.0294061 C52.4008193,53.8292043 52.4507892,55.2634528 52.6204673,56.3337957 C52.7143668,56.9240463 52.8823976,57.6217147 53.1201665,58.4196764 L61.26746,60.3000382 L61.2273742,22.8709202 Z" id="Fill-47" fill="#7D3699"></path>
                                <path d="M47.750322,19.8103314 L47.750322,21.8781265 C48.5064603,22.5166054 49.1983515,23.2203025 49.8205044,23.99415 C49.868827,24.0538875 49.9138548,24.1185574 49.9616283,24.1799391 L54.069595,21.245128 L47.750322,19.8103314 Z" id="Fill-49" fill="#12B586"></path>
                                <path d="M19.7328468,16.7433305 L11.7453473,22.4474415 C14.8769787,20.4651423 17.3507643,20.5232357 19.5291233,20.6410666 C21.7069332,20.7594455 24.0527739,21.1249953 26.5677435,21.7371678 C30.605972,22.7192746 33.8380923,23.7550903 36.2684974,24.8418747 C38.6983534,25.9308513 40.6982484,27.4527879 42.2698299,29.4087806 C43.3752084,30.7679462 44.2214024,32.5178718 44.8062152,34.6574615 C45.3904788,36.7981473 45.6480161,38.7683893 45.5777288,40.5670915 L44.9209812,57.4443107 C44.8501448,59.243561 44.9001147,60.6789056 45.0703419,61.7487004 C45.24002,62.8195913 45.6469179,64.2319178 46.2915848,65.987872 L49.9366433,63.3736705 L49.9366433,24.1776373 L19.7328468,16.7433305 Z" id="Fill-51" fill="#AF1E3A"></path>
                                <path d="M49.9365884,24.1778565 L49.9365884,63.3738897 L53.8419299,60.572803 C53.197263,58.8173968 52.7903651,57.4045222 52.620687,56.3336313 C52.4504598,55.2638365 52.4004899,53.8290399 52.4713263,52.0292416 L53.1280739,35.1520224 C53.1983612,33.3533202 52.9408239,31.3836262 52.3560111,29.2423924 C51.7717475,27.1028028 50.9656393,25.5945674 49.9365884,24.1778565" id="Fill-53" fill="#AA00FF" filter="url(#filter-5)"></path>
                                <path d="M49.9365884,24.19797 C48.5033852,22.2238916 46.2486985,20.5358957 43.8182934,19.4474671 C41.3889865,18.3606827 38.1563171,17.324867 34.1180886,16.3427603 C31.603119,15.7300397 29.2539836,15.4110742 27.0794684,15.2461109 C24.5436323,15.0537452 22.2323862,15.2318616 19.7531094,16.7494138 L19.7333411,16.7636631 L49.9365884,24.19797 Z" id="Fill-55" fill="#1DE9B6" filter="url(#filter-6)"></path>
                                <path d="M49.9671744,63.387317 L46.3166246,66.0015185 L33.6753331,62.9253103 C33.2063846,61.8177 32.9038195,60.9874033 32.7709325,60.4338721 C32.635849,59.880341 32.5128461,59.0325067 32.4019238,57.8920133 C30.5645683,59.3103683 28.7590618,60.2020467 26.9854042,60.5697887 C24.5621376,61.0449486 21.7720589,60.8986191 18.6184627,60.1308001 C14.5582694,59.1432129 11.485943,57.3927392 9.39654144,54.8848595 L0.28993536,61.3776153 L49.9611341,73.616682 L49.9863936,73.5991444 L49.9671744,63.387317 Z" id="Fill-57" fill="#FFC107"></path>
                            </g>
                        </g>
                        <g id="Group-60" transform="translate(0.000000, -0.548051)">
                            <polygon id="Fill-1" fill="#FFE1A4" points="28.0262128 0.837030785 28.0676868 50.6342274 0.266816248 70.4555283 0.241931831 20.6881349"></polygon>
                            <polygon id="Fill-2" fill="#9B9B9B" points="78.0720931 13.1760307 78.1141201 62.9726754 50.3132495 82.7939763 50.2883651 33.0271348"></polygon>
                            <polygon id="Fill-3" fill="#2D328D" points="78.0720931 62.9492744 28.0676868 50.6339514 28.0262128 0.836754829 78.0720931 13.1758099"></polygon>
                            <polygon id="Fill-4" fill="#2D328D" points="28.0678527 50.633841 78.072259 62.9497159 78.072259 13.1762515 28.0258257 0.837196358"></polygon>
                            <polygon id="Fill-5" fill="#2D328D" points="28.0678527 50.633841 78.072259 62.9497159 78.072259 13.1762515 28.0258257 0.837196358"></polygon>
                            <polygon id="Stroke-6" stroke="#231F20" stroke-width="0.528" points="61.6585529 31.6909051 48.0860389 28.5919297 55.3699843 23.4139087 68.8833286 26.4748023"></polygon>
                            <polygon id="Stroke-7" stroke="#231F20" stroke-width="0.528" points="61.6585529 31.6909051 48.0860389 28.5919297 55.3699843 23.4139087 68.8833286 26.4748023"></polygon>
                            <polygon id="Fill-8" fill="#8251A0" points="68.9056693 64.1889198 61.6991421 69.383498 61.6587741 31.6907947 68.8835498 26.474692"></polygon>
                            <polygon id="Fill-9" fill="#AA00FF" filter="url(#filter-7)" points="68.9056693 64.1889198 61.6991421 69.383498 61.6587741 31.6907947 68.8835498 26.474692"></polygon>
                            <polygon id="Fill-10" fill="#C5E5D6" points="50.2882545 33.0582625 0.241821234 20.6883004 28.0261022 0.837196358 78.0719825 13.1762515"></polygon>
                            <polygon id="Fill-11" fill="#C5E5D6" points="0.242097727 20.6881349 50.287978 33.0586488 78.072259 13.1760859 28.0258257 0.837030785"></polygon>
                            <polygon id="Fill-12" fill="#BDFFE3" points="0.242097727 20.6881349 50.287978 33.0586488 78.621379 12.6280353 28.5749457 0.288980152"></polygon>
                            <g id="Group-59" transform="translate(0.000000, 8.658922)">
                                <path d="M32.3653362,44.5462131 C30.4708026,44.8166491 28.5021687,44.9833259 26.4588816,45.0473475 C23.6729329,45.1737349 21.8983975,45.5352361 21.1352754,46.1296433 C20.3489278,46.7433674 19.9358465,47.556331 19.8960314,48.5707419 C19.8512394,49.730857 20.1863496,50.7706557 20.9024678,51.6879304 C21.6174801,52.6063089 22.6980167,53.2410055 24.1413129,53.5920204 C25.6520735,53.9601444 27.0732502,53.9027458 28.403737,53.422584 C29.7347768,52.9413183 30.6947624,52.1934801 31.2836936,51.1785173 C31.8720718,50.1641065 32.202758,48.7379707 32.2740933,46.9012137 L32.3653362,44.5462131 Z M20.9035738,33.9274619 L7.99906816,29.2870014 C8.58191651,26.9413833 9.36384018,25.174167 10.3404153,23.9853526 C11.3169904,22.7965381 12.6928222,21.8936131 14.4668046,21.2765776 C15.7397808,20.8311861 17.4728422,20.6678207 19.6665418,20.7864814 C21.8596884,20.905694 24.222049,21.273818 26.7547297,21.8903017 C30.8213964,22.8793247 34.0768311,23.9224348 36.5243518,25.0168726 C38.9707664,26.1135181 40.9847452,27.6461726 42.5673941,29.6159399 C43.6805571,30.984677 44.5327101,32.7469261 45.1210883,34.9010314 C45.7100195,37.0573444 45.9699234,39.0409094 45.8991411,40.8528304 L45.2372156,57.8489033 C45.1658803,59.6608243 45.2162021,61.1057251 45.3876281,62.1836056 C45.5585011,63.262038 45.9688174,64.6843105 46.6174712,66.4520786 L33.8877095,63.3547589 C33.4143526,62.2393485 33.1107627,61.4026527 32.9758339,60.8457754 C32.8403521,60.2883462 32.716483,59.4345412 32.6053326,58.2860161 C30.7550379,59.7138077 28.9368165,60.6123174 27.1506684,60.9826491 C24.7103366,61.4611552 21.9006094,61.3137952 18.7248048,60.5405691 C14.5027488,59.5134643 11.3391099,57.6706363 9.23333524,55.0120852 C7.12866656,52.353534 6.13660781,49.4659401 6.25715898,46.3487516 C6.37107431,43.4258355 7.25364163,41.2143316 8.90486094,39.7136879 C10.5549743,38.2130442 13.5200908,37.5209489 17.7985515,37.6351943 C22.9302713,37.7621336 26.2592533,37.7853138 27.7877095,37.7063907 C29.3150597,37.6274675 30.9380767,37.4309875 32.6545484,37.1169506 C32.7253308,35.3050296 32.4300357,33.9534017 31.7708751,33.0598592 C31.1095026,32.1685243 29.9133917,31.5111993 28.1803303,31.08954 C25.9578753,30.548668 24.2767947,30.5299031 23.1365355,31.0326932 C22.2462263,31.4262052 21.5013528,32.3909441 20.9035738,33.9274619 Z" id="Fill-13" fill="#ED2649"></path>
                                <path d="M20.903795,33.9276275 L7.99873637,29.2866151 C8.5821377,26.9415489 9.36406138,25.1743326 10.3400835,23.9855182 C11.3172116,22.7967037 12.6924904,21.8937787 14.4664728,21.2767432 C15.739449,20.8313517 17.4730634,20.6679863 19.666763,20.786095 C21.8599096,20.9053076 24.2222702,21.2734317 26.7549509,21.8904672 C30.8216176,22.8794902 34.0764993,23.9226004 36.52402,25.0170382 C38.9709876,26.1131318 40.9844134,27.6463381 42.5676153,29.6161055 C43.6802253,30.9842907 44.5323783,32.7465398 45.1213095,34.901197 C45.7096877,37.0575099 45.9695916,39.041075 45.8988093,40.8524441 L45.2374368,57.848517 C45.1661015,59.6609899 45.2164233,61.1058906 45.3872963,62.1837712 C45.5587223,63.2616517 45.9684857,64.684476 46.6176924,66.4522442 L33.8873777,63.3543726 C33.4145738,62.2389622 33.1104309,61.4028183 32.9760551,60.8453891 C32.8405733,60.2885117 32.7161512,59.4347067 32.6050008,58.2861817 C30.7547061,59.7139733 28.9364848,60.612483 27.1508896,60.9828147 C24.7105578,61.4613208 21.9008306,61.3139608 18.725026,60.5407347 C14.50297,59.5136299 11.3387781,57.6708019 9.23355644,55.0122507 C7.12888775,52.3531477 6.136829,49.4655538 6.25738018,46.3489172 C6.37129551,43.4260011 7.25330984,41.2144971 8.90508213,39.7138535 C10.5546425,38.2132098 13.519759,37.5205625 17.7987727,37.6348079 C22.9299395,37.7622992 26.2594745,37.7854794 27.7873777,37.7065563 C29.3152809,37.6276331 30.9382978,37.4311531 32.6547696,37.1171162 C32.725552,35.3051952 32.4302569,33.9530154 31.7705433,33.0600248 C31.1091708,32.168138 29.9136129,31.5113649 28.1799985,31.0891536 C25.9580965,30.5488336 24.2770159,30.5300686 23.1362037,31.0328588 C22.2464475,31.4258188 21.501574,32.3905577 20.903795,33.9276275" id="Fill-15" fill="#FF1744"></path>
                                <polygon id="Fill-17" fill="#62C2A5" points="61.6687832 8.76129759 48.0863154 5.7589064 55.3697078 0.569847224 68.8836051 3.63018897"></polygon>
                                <polygon id="Fill-19" fill="#1DE9B6" filter="url(#filter-8)" points="61.6687832 8.76129759 48.0863154 5.7589064 55.3697078 0.569847224 68.8836051 3.63018897"></polygon>
                                <path d="M28.5057631,46.2351133 C28.1988553,45.8421533 27.9666008,45.4254612 27.7995987,44.9883483 C27.3561031,45.0120805 26.9098425,45.033053 26.4591581,45.0474027 C23.6732094,45.1737901 21.898674,45.5352913 21.1355518,46.1296985 C20.3486513,46.7434226 19.936123,47.5563862 19.8963079,48.5707971 C19.8515159,49.7309122 20.1860731,50.7707109 20.9021913,51.6879856 C21.6177565,52.606364 22.6977402,53.2410607 24.1410364,53.5920756 C25.65235,53.9601996 27.0729737,53.902801 28.4034605,53.4226391 C29.7350533,52.9413735 30.6944859,52.1935353 31.2834171,51.1785725 C31.7219358,50.4230075 32.0166779,49.4389517 32.1681963,48.2280609 C32.0271846,48.2010173 31.8867259,48.1739737 31.7446083,48.1392033 C30.3013121,47.7876366 29.2213284,47.1534918 28.5057631,46.2351133" id="Fill-21" fill="#FFE0A3"></path>
                                <path d="M32.3653362,44.5462131 C30.8888608,44.7570428 29.3659345,44.9027471 27.7993222,44.9882931 C27.9668773,45.425406 28.1991318,45.8420981 28.5060396,46.2350581 C29.2210519,47.1534366 30.3015886,47.7881333 31.7448847,48.1391481 C31.8870024,48.1739185 32.0274611,48.2009621 32.1684728,48.2280057 C32.2199006,47.8124173 32.2558448,47.3708892 32.2740933,46.9012137 L32.3653362,44.5462131 Z" id="Fill-23" fill="#FCBF12"></path>
                                <path d="M8.90497154,39.7137983 C9.00838011,39.6199735 9.11621259,39.5294603 9.22957493,39.4417066 C10.4771137,38.4797272 12.3462099,37.8991177 14.8363106,37.7004301 C15.288654,37.6645559 15.7620109,37.6408238 16.2558283,37.6297856 C16.7501987,37.6192993 17.2639237,37.620955 17.7986621,37.6347527 C19.723057,37.6827689 21.3936309,37.7158835 22.8109367,37.7346485 C23.2837406,37.7407195 23.7283422,37.7451348 24.1447414,37.7478943 C24.5605877,37.7512058 24.9487846,37.7523096 25.3082262,37.7523096 C26.0282153,37.7517577 26.6353951,37.7445829 27.1303185,37.731337 C27.3775037,37.7247141 27.5964866,37.7164354 27.7872671,37.7065011 C28.1699341,37.6871842 28.557578,37.6595887 28.9513048,37.6253703 C29.7387584,37.5563815 30.5499903,37.4581415 31.3850008,37.3306503 C31.802506,37.2666287 32.2260941,37.1959842 32.654659,37.117061 C32.6640598,36.8907779 32.6668247,36.6711176 32.6646128,36.4591841 C32.6535531,35.6103463 32.5518034,34.8768578 32.358811,34.2587184 C32.3107011,34.1036316 32.2570613,33.9562716 32.1967858,33.8160865 C32.0773406,33.5357161 31.9352229,33.2834932 31.7709857,33.0599696 C31.6465636,32.8932927 31.503893,32.7343426 31.3424208,32.5836711 C31.2323764,32.4810158 31.1101662,32.3833277 30.9824262,32.2878473 C29.4489931,32.2718419 27.5915097,32.2365196 25.402234,32.1824324 C24.0413329,32.1460064 22.8142546,32.1918149 21.7193403,32.3187542 C21.6922439,32.3590437 21.6651475,32.3982293 21.6380512,32.4401745 C21.5495732,32.5787039 21.4638603,32.7260639 21.3798062,32.8822545 C21.2957522,33.0384451 21.2144631,33.2040181 21.134833,33.3784217 C21.0557558,33.5522734 20.9783376,33.7355076 20.9036844,33.9275723 L18.5075915,33.0660406 C17.7063133,33.3811813 17.0388579,33.7791085 16.5085434,34.260926 C16.3404353,34.4132532 16.0877202,34.5722034 15.7714116,34.7377764 L8.89888868,39.6431538 L8.90497154,39.7137983 Z" id="Fill-25" fill="#FCBF12"></path>
                                <polygon id="Fill-27" fill="#0E8C65" points="68.8835498 3.63024417 61.6687279 8.76135278 61.7102019 16.1265937 61.6687279 8.76135278 61.6991421 16.2154512 68.8995864 11.0705448"></polygon>
                                <polygon id="Fill-29" fill="#AA00FF" filter="url(#filter-9)" points="68.9056693 13.791793 68.8995864 11.070876 61.6991421 16.2157823 61.7102019 18.9935461"></polygon>
                                <path d="M61.690405,16.221467 L61.6688385,8.76129759 L61.690405,16.221467 Z" id="Fill-31" fill="#0CB586"></path>
                                <polygon id="Fill-33" fill="#12B586" points="58.7601819 18.3154141 61.6904603 16.221467 61.6688938 8.76129759 48.085873 5.7589064 48.085873 15.8516872"></polygon>
                                <polygon id="Fill-35" fill="#0CB586" points="61.6990316 18.9937117 61.6990316 18.9937117 61.6901838 16.221467"></polygon>
                                <path d="M61.6990316,18.9937117 L58.7604584,18.3154141 L61.6990316,18.9937117 Z" id="Fill-37" fill="#0CB586"></path>
                                <polygon id="Fill-39" fill="#7D3699" points="58.7601819 18.3154141 61.6987551 18.9937117 61.6904603 16.221467"></polygon>
                                <path d="M65.2940003,0.602520305 L65.3022951,0.604176035 L65.2940003,0.602520305 Z" id="Stroke-41" stroke="#231F20" stroke-width="0.528"></path>
                                <polygon id="Fill-43" fill="#1DE9B6" filter="url(#filter-10)" points="58.7601819 18.3154141 52.4201855 16.8523003 48.085873 19.9330627 54.4590487 21.3884498"></polygon>
                                <polygon id="Fill-45" fill="#C787F4" points="68.8835498 17.8157698 64.6592818 16.8593096 61.704672 18.9935461 58.760016 18.3152485 54.4588828 21.3882842 61.6587741 23.0318726"></polygon>
                                <path d="M61.6585529,23.031983 L54.4503668,21.3950175 L50.3134707,24.3504963 C51.3552983,25.691638 52.1621064,27.3887617 52.7250472,29.4484903 C53.3134254,31.6048033 53.5733294,33.5883683 53.502547,35.3997374 L52.8411745,52.3958103 C52.7698392,54.2082832 52.820161,55.6526321 52.991034,56.7305126 C53.0855948,57.3249198 53.2548088,58.0275014 53.4942522,58.8310826 L61.698921,60.7246863 L61.6585529,23.031983 Z" id="Fill-47" fill="#7D3699"></path>
                                <path d="M48.0865919,19.9498408 L48.0865919,22.0321978 C48.8480551,22.6751731 49.5448188,23.3838257 50.1713531,24.1631228 C50.2200159,24.223281 50.2653609,24.2884064 50.3134707,24.3502204 L54.4503668,21.3947416 L48.0865919,19.9498408 Z" id="Fill-49" fill="#12B586"></path>
                                <path d="M19.8718106,16.8612412 L11.828061,22.605522 C14.9817461,20.609263 17.4729528,20.6677655 19.6666524,20.7864262 C21.859799,20.9056388 24.2221596,21.2737629 26.7548403,21.8902465 C30.821507,22.8792695 34.0763887,23.9223796 36.5239094,25.0168175 C38.970877,26.1134629 40.9848558,27.6461174 42.5675047,29.6158847 C43.6806677,30.9846218 44.5328207,32.7468709 45.1217519,34.9015281 C45.7101301,37.0572892 45.969481,39.0414061 45.8986987,40.8527752 L45.2373262,57.8488481 C45.1659909,59.6607691 45.2163127,61.1062218 45.3877387,62.1835504 C45.5586117,63.2619828 45.9683751,64.6842553 46.6175818,66.4525754 L50.2883098,63.819964 L50.2883098,24.3479024 L19.8718106,16.8612412 Z" id="Fill-51" fill="#AF1E3A"></path>
                                <path d="M50.2882545,24.3481231 L50.2882545,63.8201847 L54.2210984,60.999372 C53.5718916,59.2316038 53.1621282,57.8087794 52.9912552,56.730347 C52.8198292,55.6530184 52.7695074,54.2081177 52.8408427,52.3956448 L53.5022152,35.3995719 C53.5729976,33.5882028 53.3136466,31.6046377 52.7247154,29.4483248 C52.1363372,27.2936676 51.3245522,25.7748108 50.2882545,24.3481231" id="Fill-53" fill="#AA00FF" filter="url(#filter-11)"></path>
                                <path d="M50.2882545,24.3683782 C48.8449584,22.3803979 46.5743936,20.6805146 44.1268729,19.5844211 C41.6804582,18.4899833 38.4250235,17.4468731 34.3583568,16.4578501 C31.8256762,15.8408146 29.4599976,15.5196029 27.2701689,15.3534779 C24.7164747,15.1597575 22.3889523,15.3391283 19.8922158,16.8673675 L19.8723082,16.8817171 L50.2882545,24.3683782 Z" id="Fill-55" fill="#1DE9B6" filter="url(#filter-12)"></path>
                                <path d="M50.3190559,63.8337065 L46.6427981,66.4663179 L33.9124834,63.3684463 C33.4402324,62.2530359 33.1355366,61.416892 33.0017137,60.8594628 C32.8656789,60.3020335 32.7418098,59.4482285 32.6301064,58.2997035 C30.7798118,59.728047 28.9615904,60.6260048 27.1754422,60.9963365 C24.7351104,61.4748426 21.9253832,61.3274826 18.7495787,60.5542565 C14.6607925,59.5597144 11.56683,57.7969134 9.46271427,55.2713726 L0.291977158,61.809852 L50.3129731,74.1351094 L50.3384105,74.1174483 L50.3190559,63.8337065 Z" id="Fill-57" fill="#FFC107"></path>
                            </g>
                        </g>
                    </g>
                </g>
            </g>
        </g>
    </g>
</svg>