<?xml version="1.0" encoding="UTF-8"?>
<svg width="376px" height="641px" viewBox="0 0 376 641" version="1.1" xmlns="http://www.w3.org/2000/svg" xmlns:xlink="http://www.w3.org/1999/xlink">
    <!-- Generator: Sketch 52.2 (67145) - http://www.bohemiancoding.com/sketch -->
    <title>Group 5</title>
    <desc>Created with Sketch.</desc>
    <defs>
        <filter x="0.0%" y="0.0%" width="100.0%" height="100.0%" filterUnits="objectBoundingBox" id="filter-1">
            <feGaussianBlur stdDeviation="0" in="SourceGraphic"></feGaussianBlur>
        </filter>
    </defs>
    <g id="landing" stroke="none" stroke-width="1" fill="none" fill-rule="evenodd">
        <g id="01-landing-final" transform="translate(-1064.000000, -2897.000000)">
            <g id="Group-5" transform="translate(1064.000000, 2897.000000)">
                <ellipse id="Oval-4" fill="#1DE9B6" style="mix-blend-mode: multiply;" filter="url(#filter-1)" transform="translate(100.500000, 502.000000) scale(-1, 1) translate(-100.500000, -502.000000) " cx="100.5" cy="502" rx="100.5" ry="100"></ellipse>
                <ellipse id="Oval-4" fill="#FF1744" style="mix-blend-mode: multiply;" transform="translate(226.500000, 199.000000) scale(-1, 1) translate(-226.500000, -199.000000) " cx="226.5" cy="199" rx="199.5" ry="199"></ellipse>
                <g id="Group-313" style="mix-blend-mode: multiply;" transform="translate(50.000000, 70.000000)">
                    <polygon id="Stroke-108" stroke="#ADADAD" points="17 383 117 445.407433 116.886203 514"></polygon>
                    <polygon id="Stroke-109" stroke="#ADADAD" points="301 567 220.070134 508 116 513.888903"></polygon>
                    <polygon id="Stroke-110" stroke="#ADADAD" points="17 383 47 276.051204 36.4107697 180"></polygon>
                    <polygon id="Stroke-111" stroke="#ADADAD" points="184 46 124.690968 132.267215 36 180"></polygon>
                    <polygon id="Stroke-113" stroke="#ADADAD" points="334 39 264.040143 70 184 45.511738"></polygon>
                    <polygon id="Stroke-115" stroke="#ADADAD" points="264 70 125 131 211.574839 121.850068"></polygon>
                    <polygon id="Stroke-116" stroke="#ADADAD" points="211 123 383 159.120938 322.843279 236"></polygon>
                    <path d="M324,236 L438,350" id="Stroke-117" stroke="#ADADAD"></path>
                    <polygon id="Stroke-118" stroke="#ADADAD" points="121 241 211.646937 123 324 237.112492"></polygon>
                    <polygon id="Stroke-119" stroke="#ADADAD" points="124.395953 132.313444 121 241 211 123"></polygon>
                    <polygon id="Stroke-120" stroke="#ADADAD" points="388 110.669165 263.561866 70 211 123"></polygon>
                    <polygon id="Stroke-121" stroke="#ADADAD" points="382.940563 159 388 111 211 123.08862"></polygon>
                    <polygon id="Stroke-123" stroke="#ADADAD" points="438 350 384.133922 159 324 236.139459"></polygon>
                    <polygon id="Stroke-126" stroke="#ADADAD" points="121.577595 240.010035 46 276 125 132"></polygon>
                    <polygon id="Stroke-127" stroke="#ADADAD" points="145 406 67 358.833358 121.944338 240"></polygon>
                    <polygon id="Stroke-128" stroke="#ADADAD" points="17 383 67 358.512355 46.761705 276"></polygon>
                    <polygon id="Stroke-129" stroke="#ADADAD" points="116.787895 445 67 359 145 406.109228"></polygon>
                    <path d="M301,566 L393,476" id="Stroke-130" stroke="#ADADAD"></path>
                    <polygon id="Stroke-132" stroke="#ADADAD" points="220.832037 508 145 406 305 507.569474"></polygon>
                    <polygon id="Stroke-133" stroke="#ADADAD" points="116.113744 446 220 508.140834 116 514"></polygon>
                    <polygon id="Stroke-134" stroke="#ADADAD" points="393 476 304.276446 506.863334 301 566"></polygon>
                    <polygon id="Stroke-136" stroke="#ADADAD" points="438 350.973966 324 237 331.769911 432"></polygon>
                    <polygon id="Stroke-137" stroke="#ADADAD" points="394 477.138478 305 508 331.961368 432"></polygon>
                    <polygon id="Stroke-138" stroke="#ADADAD" points="145 406 332 431.323509 304.993143 508"></polygon>
                    <polygon id="Stroke-139" stroke="#ADADAD" points="324 236 207.489216 364 121 239.870321"></polygon>
                    <polygon id="Stroke-140" stroke="#ADADAD" points="144.114553 406 207 364.054617 121 240"></polygon>
                    <polygon id="Stroke-141" stroke="#ADADAD" points="332 432 208.053914 364 145 406.476668"></polygon>
                    <polygon id="Stroke-144" stroke="#ADADAD" points="300.714229 567 304 507 220 507.434818"></polygon>
                    <polygon id="Stroke-145" stroke="#ADADAD" points="116 445.560557 144.085214 406 220 508"></polygon>
                    <polygon id="Stroke-146" stroke="#ADADAD" points="17 383.655713 66.618363 359 117 446"></polygon>
                    <polygon id="Stroke-147" stroke="#ADADAD" points="46 276.780783 121 241 65.9920798 359"></polygon>
                    <polygon id="Stroke-148" stroke="#ADADAD" points="208 364.875087 324.211709 237 332 432"></polygon>
                    <polygon id="Stroke-209" stroke="#000000" points="241 32 342.515638 90 426 80.0005955"></polygon>
                    <polygon id="Stroke-212" stroke="#000000" points="234 563 333.748278 502 394 533.177388"></polygon>
                    <polygon id="Stroke-214" stroke="#000000" points="234 563 156.248628 479.000384 63 455"></polygon>
                    <polygon id="Stroke-215" stroke="#000000" points="11 264 75 350.818056 62.3334629 455"></polygon>
                    <polygon id="Stroke-216" stroke="#000000" points="241 33 166.705232 119.66658 73 129"></polygon>
                    <polygon id="Stroke-217" stroke="#000000" points="73 129 69.022008 204.519613 12 264"></polygon>
                    <polygon id="Stroke-218" stroke="#000000" points="167 119 343 90.2228315 241.281248 32"></polygon>
                    <polygon id="Stroke-219" stroke="#000000" points="69 205 75.7118524 351 118 264.333548"></polygon>
                    <polygon id="Stroke-220" stroke="#000000" points="117 263.958627 254 142 243.254916 272"></polygon>
                    <path d="M244,272 L368,177" id="Stroke-221" stroke="#000000"></path>
                    <polygon id="Stroke-222" stroke="#000000" points="167.537469 395 119 264 244 272.019899"></polygon>
                    <polygon id="Stroke-223" stroke="#000000" points="76 350.887783 167 395 118.154295 264"></polygon>
                    <polygon id="Stroke-224" stroke="#000000" points="166 119 69 204.254469 117.499656 264"></polygon>
                    <polygon id="Stroke-225" stroke="#000000" points="254 141.823932 166.024752 119 117 264"></polygon>
                    <polygon id="Stroke-226" stroke="#000000" points="343 90 254.665768 142 167 119.039106"></polygon>
                    <polygon id="Stroke-227" stroke="#000000" points="368 176.845719 254.724933 142 244 272"></polygon>
                    <polygon id="Stroke-228" stroke="#000000" points="342.259945 90 367 176 254 141.333076"></polygon>
                    <polygon id="Stroke-230" stroke="#000000" points="167 394.999676 156.695601 479 76 351"></polygon>
                    <polygon id="Stroke-231" stroke="#000000" points="291 431.164813 228.5 468 166 395"></polygon>
                    <polygon id="Stroke-232" stroke="#000000" points="234 563 228.639509 467 156 478.412539"></polygon>
                    <polygon id="Stroke-233" stroke="#000000" points="333 503 229 467.667306 291.000027 431"></polygon>
                    <polygon id="Stroke-236" stroke="#000000" points="436 440 291 431.267436 435.623682 346"></polygon>
                    <polygon id="Stroke-240" stroke="#000000" points="367.941054 177 244 271.666461 380 289"></polygon>
                    <polygon id="Stroke-242" stroke="#000000" points="291 431 379.229288 289 435 345.975459"></polygon>
                    <polygon id="Stroke-243" stroke="#000000" points="244 272 244 355.559677 167 395"></polygon>
                    <polygon id="Stroke-244" stroke="#000000" points="291 430 243.284654 355 166 394.159529"></polygon>
                    <polygon id="Stroke-245" stroke="#000000" points="380 289 244 355.311966 291.566574 431"></polygon>
                    <polygon id="Stroke-249" stroke="#000000" points="333.96286 503 291 431 436 439.666692"></polygon>
                    <polygon id="Stroke-250" stroke="#000000" points="234.350001 563 229 467 334 502.580882"></polygon>
                    <polygon id="Stroke-251" stroke="#000000" points="156 479 166.370853 395 229 467.666815"></polygon>
                    <polygon id="Stroke-252" stroke="#000000" points="244 355 244 272 380 289.263543"></polygon>
                    <polygon id="Stroke-253" stroke="#000000" points="156 479 75.6574379 351 63 454.999611"></polygon>
                    <polygon id="Stroke-254" stroke="#000000" points="68.3337651 205 11 264.333548 75 351"></polygon>
                    <polygon id="Stroke-255" stroke="#000000" points="166 119 72.9860467 128.370161 69 204"></polygon>
                    <g id="Group-312" transform="translate(0.000000, 24.000000)" fill="#000000">
                        <path d="M253.093928,249.249967 C253.093928,254.047641 249.196862,257.936881 244.389533,257.936881 C239.582203,257.936881 235.685137,254.047641 235.685137,249.249967 C235.685137,244.452292 239.582203,240.563053 244.389533,240.563053 C249.196862,240.563053 253.093928,244.452292 253.093928,249.249967" id="Fill-256"></path>
                        <path d="M238.363546,443.700781 C238.363546,448.498456 234.46648,452.387695 229.659151,452.387695 C224.851821,452.387695 220.954755,448.498456 220.954755,443.700781 C220.954755,438.903106 224.851821,435.013867 229.659151,435.013867 C234.46648,435.013867 238.363546,438.903106 238.363546,443.700781" id="Fill-268"></path>
                        <path d="M164.042122,455.060586 C164.042122,459.858261 160.145056,463.7475 155.33842,463.7475 C150.530397,463.7475 146.634025,459.858261 146.634025,455.060586 C146.634025,450.262912 150.530397,446.373672 155.33842,446.373672 C160.145056,446.373672 164.042122,450.262912 164.042122,455.060586" id="Fill-270"></path>
                        <path d="M85.0340888,326.094742 C85.0340888,330.892417 81.1370229,334.781656 76.3296934,334.781656 C71.522364,334.781656 67.6252981,330.892417 67.6252981,326.094742 C67.6252981,321.297068 71.522364,317.407828 76.3296934,317.407828 C81.1370229,317.407828 85.0340888,321.297068 85.0340888,326.094742" id="Fill-272"></path>
                        <path d="M255.102474,330.772493 C255.102474,335.570167 251.205409,339.459406 246.398079,339.459406 C241.59075,339.459406 237.693684,335.570167 237.693684,330.772493 C237.693684,325.974818 241.59075,322.085579 246.398079,322.085579 C251.205409,322.085579 255.102474,325.974818 255.102474,330.772493" id="Fill-274"></path>
                        <path d="M300.632651,406.948543 C300.632651,411.746911 296.735585,415.635457 291.928255,415.635457 C287.120926,415.635457 283.22386,411.746911 283.22386,406.948543 C283.22386,402.150869 287.120926,398.262322 291.928255,398.262322 C296.735585,398.262322 300.632651,402.150869 300.632651,406.948543" id="Fill-278"></path>
                        <path d="M263.8068,117.611509 C263.8068,122.409183 259.909734,126.298423 255.102405,126.298423 C250.295076,126.298423 246.39801,122.409183 246.39801,117.611509 C246.39801,112.813834 250.295076,108.924595 255.102405,108.924595 C259.909734,108.924595 263.8068,112.813834 263.8068,117.611509" id="Fill-280"></path>
                        <path d="M77.6689326,179.755555 C77.6689326,184.55323 73.7718667,188.442469 68.9645372,188.442469 C64.1572078,188.442469 60.2601419,184.55323 60.2601419,179.755555 C60.2601419,174.957881 64.1572078,171.068642 68.9645372,171.068642 C73.7718667,171.068642 77.6689326,174.957881 77.6689326,179.755555" id="Fill-282"></path>
                        <path d="M179.442158,95.5603461 C179.442158,102.20328 174.046487,107.588114 167.390185,107.588114 C160.733883,107.588114 155.338212,102.20328 155.338212,95.5603461 C155.338212,88.9174119 160.733883,83.5325777 167.390185,83.5325777 C174.046487,83.5325777 179.442158,88.9174119 179.442158,95.5603461" id="Fill-288"></path>
                        <path d="M179.442158,370.8651 C179.442158,377.508034 174.046487,382.892868 167.390185,382.892868 C160.733883,382.892868 155.338212,377.508034 155.338212,370.8651 C155.338212,364.222166 160.733883,358.837332 167.390185,358.837332 C174.046487,358.837332 179.442158,364.222166 179.442158,370.8651" id="Fill-294"></path>
                        <path d="M130.564265,239.89502 C130.564265,246.537955 125.168595,251.922789 118.512292,251.922789 C111.85599,251.922789 106.460319,246.537955 106.460319,239.89502 C106.460319,233.252086 111.85599,227.867252 118.512292,227.867252 C125.168595,227.867252 130.564265,233.252086 130.564265,239.89502" id="Fill-296"></path>
                        <path d="M342.814764,479.116261 C342.814764,483.913936 338.917698,487.803175 334.110369,487.803175 C329.303039,487.803175 325.405973,483.913936 325.405973,479.116261 C325.405973,474.318587 329.303039,470.429347 334.110369,470.429347 C338.917698,470.429347 342.814764,474.318587 342.814764,479.116261" id="Fill-300"></path>
                        <path d="M242.28989,528.8369 C246.306983,532.845925 246.306983,539.346916 242.28989,543.355941 C238.272103,547.364967 231.758724,547.364967 227.741631,543.355941 C223.724538,539.346916 223.724538,532.845925 227.741631,528.8369 C231.758724,524.827874 238.272103,524.827874 242.28989,528.8369" id="Fill-302"></path>
                        <path d="M75.660386,431.004911 C75.660386,437.647845 70.2647155,443.032679 63.6084132,443.032679 C56.9521109,443.032679 51.5564403,437.647845 51.5564403,431.004911 C51.5564403,424.361284 56.9521109,418.977143 63.6084132,418.977143 C70.2647155,418.977143 75.660386,424.361284 75.660386,431.004911" id="Fill-304"></path>
                        <path d="M24.1041539,239.89502 C24.1041539,246.537955 18.7084833,251.922789 12.052181,251.922789 C5.39587868,251.922789 0.000208139535,246.537955 0.000208139535,239.89502 C0.000208139535,233.252086 5.39587868,227.867252 12.052181,227.867252 C18.7084833,227.867252 24.1041539,233.252086 24.1041539,239.89502" id="Fill-306"></path>
                        <path d="M89.0515287,106.251703 C89.0515287,112.894638 83.6558581,118.280164 76.9995558,118.280164 C70.3432535,118.280164 64.9475829,112.894638 64.9475829,106.251703 C64.9475829,99.6087692 70.3432535,94.2239351 76.9995558,94.2239351 C83.6558581,94.2239351 89.0515287,99.6087692 89.0515287,106.251703" id="Fill-308"></path>
                        <path d="M250.415588,8.69224544 C250.415588,13.4899201 246.518522,17.3791594 241.711193,17.3791594 C236.903864,17.3791594 233.006798,13.4899201 233.006798,8.69224544 C233.006798,3.89457076 236.903864,0.00533151899 241.711193,0.00533151899 C246.518522,0.00533151899 250.415588,3.89457076 250.415588,8.69224544" id="Fill-310"></path>
                    </g>
                </g>
            </g>
        </g>
    </g>
</svg>