<svg xmlns="http://www.w3.org/2000/svg" width="69" height="70" viewBox="0 0 69 70">
    <path fill="#FFF" fill-rule="nonzero" d="M47.464 7.938c-11.874 0-21.535 9.61-21.535 21.422v18.493c0 11.815 9.661 21.425 21.535 21.425C59.34 69.278 69 59.668 69 47.853V29.36c0-11.813-9.66-21.422-21.536-21.422zM30.834 29.36c0-8.292 6.17-15.158 14.18-16.344v18.09h-14.18V29.36zm33.263 18.493c0 9.124-7.462 16.548-16.633 16.548-9.17 0-16.632-7.422-16.632-16.548v-11.87h33.265v11.87zm0-16.747h-14.18v-18.09c8.008 1.185 14.18 8.052 14.18 16.344v1.746zM18.983 4.05l-6.374 6.34h3.924c0 3.04-2.486 5.514-5.54 5.514-3.056 0-5.543-2.473-5.543-5.513s2.486-5.514 5.542-5.514V0C5.234 0 .546 4.661.546 10.39c0 5.728 4.686 10.391 10.446 10.391s10.444-4.661 10.444-10.39h3.925L18.983 4.05z"/>
</svg>
