<svg xmlns="http://www.w3.org/2000/svg" width="42" height="42" viewBox="0 0 42 42">
    <g fill="#FFF" fill-rule="nonzero">
        <path d="M34.686 7.582C31.186 4.149 26.35 2.027 21 2.027S10.814 4.149 7.313 7.582c-3.51 3.433-5.673 8.19-5.673 13.436 0 5.235 2.163 9.99 5.673 13.424A19.49 19.49 0 0 0 21 40.007a19.49 19.49 0 0 0 13.686-5.565c3.511-3.433 5.674-8.19 5.674-13.424 0-5.247-2.163-10.003-5.674-13.436M21 .408a21.177 21.177 0 0 1 14.849 6.033C39.65 10.171 42 15.326 42 21.018c0 5.68-2.35 10.835-6.151 14.564A21.179 21.179 0 0 1 21 41.616a21.179 21.179 0 0 1-14.849-6.034C2.349 31.853 0 26.697 0 21.018 0 15.326 2.35 10.17 6.151 6.44A21.177 21.177 0 0 1 21 .408"/>
        <path d="M24.782 20.569l-6.117 3.235v-6.495l2.77 1.48 3.347 1.78zm7.305-4.378s-.232-1.6-.907-2.297c-.857-.914-1.826-.926-2.255-.987-3.163-.228-7.906-.228-7.906-.228h-.025s-4.731 0-7.895.228c-.453.06-1.408.073-2.266.987-.675.697-.907 2.297-.907 2.297s-.234 1.876-.234 3.728v1.768c0 1.876.234 3.729.234 3.729s.232 1.599.907 2.308c.858.926 1.986.89 2.5.987 1.802.18 7.686.24 7.686.24s4.743-.024 7.906-.24c.429-.06 1.398-.06 2.255-.987.675-.71.907-2.308.907-2.308s.22-1.853.22-3.73V19.92c0-1.852-.22-3.728-.22-3.728z"/>
    </g>
</svg>
