<svg xmlns="http://www.w3.org/2000/svg" width="42" height="42" viewBox="0 0 42 42">
    <g fill="#FFF" fill-rule="nonzero">
        <path d="M34.698 7.314c-3.512-3.5-8.35-5.675-13.698-5.675A19.298 19.298 0 0 0 7.314 7.314 19.297 19.297 0 0 0 1.64 21c0 5.349 2.174 10.185 5.674 13.697 3.5 3.5 8.337 5.663 13.686 5.663A19.336 19.336 0 0 0 40.36 21a19.287 19.287 0 0 0-5.662-13.686M21 0a20.92 20.92 0 0 1 14.849 6.151A20.923 20.923 0 0 1 42 21a20.923 20.923 0 0 1-6.151 14.848A20.92 20.92 0 0 1 21 42a20.921 20.921 0 0 1-14.849-6.15A20.924 20.924 0 0 1 0 20.998 20.924 20.924 0 0 1 6.151 6.152 20.921 20.921 0 0 1 21 0"/>
        <path d="M32.542 14.938a9.276 9.276 0 0 1-2.498.68c.91-.542 1.6-1.371 1.923-2.385a8.873 8.873 0 0 1-2.775 1.049 4.342 4.342 0 0 0-3.19-1.359c-2.395 0-4.353 1.923-4.353 4.283 0 .346.057.668.126.98a12.366 12.366 0 0 1-8.982-4.48c-.369.645-.599 1.37-.599 2.153 0 1.498.783 2.81 1.934 3.57a4.22 4.22 0 0 1-1.968-.53v.058c0 .553.104 1.06.299 1.543a4.345 4.345 0 0 0 3.202 2.65c-.38.103-.75.16-1.152.16a3.88 3.88 0 0 1-.818-.092 4.395 4.395 0 0 0 4.066 2.994 8.813 8.813 0 0 1-5.401 1.831c-.358 0-.691-.023-1.048-.057a12.577 12.577 0 0 0 6.679 1.923c6.806 0 11.009-4.71 12.102-9.605.197-.875.288-1.738.288-2.59v-.554c.841-.61 1.59-1.37 2.165-2.222"/>
    </g>
</svg>
