<svg xmlns="http://www.w3.org/2000/svg" width="42" height="42" viewBox="0 0 42 42">
    <g fill="#FFF" fill-rule="nonzero">
        <path d="M34.698 7.314C31.186 3.814 26.348 1.64 21 1.64A19.298 19.298 0 0 0 7.314 7.314 19.297 19.297 0 0 0 1.639 21c0 5.349 2.175 10.186 5.675 13.697 3.5 3.5 8.337 5.663 13.686 5.663A19.336 19.336 0 0 0 40.36 21a19.287 19.287 0 0 0-5.662-13.686M21 0a20.92 20.92 0 0 1 14.849 6.151A20.923 20.923 0 0 1 42 21a20.923 20.923 0 0 1-6.151 14.848A20.92 20.92 0 0 1 21 42a20.921 20.921 0 0 1-14.85-6.15A20.924 20.924 0 0 1 0 20.998 20.924 20.924 0 0 1 6.15 6.152 20.921 20.921 0 0 1 21 .001"/>
        <path d="M22.552 17.514V15.85c0-.798.528-.989.91-.989h2.328v-3.553h-3.204c-3.565 0-4.363 2.63-4.363 4.34v1.866h-2.07v4.15h2.092V32.03h4.15V21.664h3.069l.135-1.63.247-2.52h-3.294z"/>
    </g>
</svg>
