<svg xmlns="http://www.w3.org/2000/svg" width="69" height="65" viewBox="0 0 69 65">
    <path fill="#FFF" fill-rule="nonzero" stroke="#FFF" stroke-width=".9" d="M60.445 24.976c-1.862 0-3.545.698-4.864 1.815L41.564 13.71c1.009-1.331 1.63-2.968 1.63-4.761C43.194 4.566 39.612 1 35.212 1S27.23 4.565 27.23 8.949c0 .792.153 1.544.37 2.266L14.216 17.36c-1.247-2.063-3.495-3.457-6.088-3.457C4.19 13.903 1 17.08 1 20.999c0 3.92 3.19 7.097 7.127 7.097 1.328 0 2.555-.386 3.62-1.014l4.166 5.39-4.195 5.428c-1.057-.62-2.275-1-3.591-1C4.19 36.9 1 40.078 1 43.997c0 3.92 3.19 7.097 7.127 7.097 2.61 0 4.87-1.413 6.111-3.498l13.378 6.141c-.228.738-.385 1.504-.385 2.314 0 4.384 3.582 7.949 7.982 7.949s7.983-3.565 7.983-7.949c0-1.777-.609-3.4-1.6-4.724l14.023-13.09c1.314 1.097 2.983 1.784 4.827 1.784 4.166 0 7.554-3.376 7.554-7.523s-3.39-7.522-7.555-7.522zM35.212 48.102a7.916 7.916 0 0 0-4.143 1.189L22.74 38.514l5.425-2.36c1.335 2.538 3.976 4.293 7.047 4.293 4.108 0 7.462-3.118 7.895-7.097h9.87a7.427 7.427 0 0 0 1.458 3.657l-14.01 13.074c-1.403-1.217-3.212-1.979-5.214-1.979zM27.54 34.568l-5.873 2.555-3.595-4.652 3.595-4.65 5.888 2.563c-.19.677-.324 1.377-.324 2.114 0 .72.128 1.406.309 2.07zm25.438-2.921h-9.87c-.433-3.98-3.787-7.097-7.895-7.097-3.053 0-5.681 1.737-7.024 4.252l-5.447-2.37 8.299-10.74a7.922 7.922 0 0 0 4.173 1.205c1.984 0 3.779-.751 5.177-1.95l14.014 13.08a7.415 7.415 0 0 0-1.427 3.62zM28.265 12.785c.386.69.849 1.327 1.414 1.871l-8.554 11.071-6.203-2.7c.194-.647.33-1.317.33-2.028 0-.728-.14-1.418-.347-2.08l13.36-6.134zm-15.15 13.273a7.074 7.074 0 0 0 1.126-1.469l5.809 2.53-3.058 3.956-3.876-5.017zm3.877 7.811l3.058 3.958-5.831 2.538a7.036 7.036 0 0 0-1.128-1.447l3.901-5.049zM14.92 46.033c.197-.649.334-1.324.334-2.037 0-.727-.141-1.414-.345-2.072l6.218-2.707 8.58 11.104a7.974 7.974 0 0 0-1.416 1.85l-13.37-6.138z"/>
</svg>
