<svg xmlns="http://www.w3.org/2000/svg" width="65" height="47" viewBox="0 0 65 47">
    <g fill="#FFF" fill-rule="evenodd">
        <path fill-rule="nonzero" d="M23 33.836l3.97 4.043 2.677-2.806V45h5.588V34.983l2.824 2.896L42 33.836 32.412 24z"/>
        <path d="M14.806 46.992h8.61v-6.051h-8.61c-4.908 0-8.886-4.037-8.886-9.017 0-4.98 3.978-9.017 8.886-9.017h1.782c1.545.007 2.839-1.185 2.982-2.746.715-7.874 7.566-14.107 15.58-14.107 8.205-.086 15.061 6.318 15.655 14.622a3.019 3.019 0 0 0 2.043 2.693c4.16 1.368 6.72 5.607 6.03 9.99-.689 4.383-4.422 7.604-8.796 7.59h-8.625v6.05h8.61c6.955.043 13.006-4.82 14.558-11.7 1.55-6.88-1.814-13.93-8.095-16.96C54.792 7.736 45.741-.026 35.15.001 25.066-.145 16.258 6.896 14.038 16.878 6.02 17.324-.197 24.157.005 32.302c.201 8.146 6.748 14.654 14.779 14.69h.022z"/>
    </g>
</svg>
